<svg class="animated" id="freepik_stories-receipt" xmlns="http://www.w3.org/2000/svg" viewBox="0 0 500 500" version="1.1" xmlns:xlink="http://www.w3.org/1999/xlink" xmlns:svgjs="http://svgjs.com/svgjs"><style>svg#freepik_stories-receipt:not(.animated) .animable {opacity: 0;}svg#freepik_stories-receipt.animated #freepik--Receipt--inject-124 {animation: 1.5s Infinite  linear floating;animation-delay: 0s;}            @keyframes floating {                0% {                    opacity: 1;                    transform: translateY(0px);                }                50% {                    transform: translateY(-10px);                }                100% {                    opacity: 1;                    transform: translateY(0px);                }            }        </style><g id="freepik--background-simple--inject-124" class="animable" style="transform-origin: 249.642px 253.469px;"><path d="M470,243s-11-92-61-149S258,21,202,38s-80,98-95,118-70,40-81,85,53,78,62,105-13,63,48,102,109,32,173,6,121,4,149-54S470,243,470,243Z" style="fill: #4400BA; transform-origin: 249.642px 253.469px;" id="elm4xmepom9ko" class="animable"></path><g id="elmcqv37tq09p"><path d="M470,243s-11-92-61-149S258,21,202,38s-80,98-95,118-70,40-81,85,53,78,62,105-13,63,48,102,109,32,173,6,121,4,149-54S470,243,470,243Z" style="fill: rgb(255, 255, 255); opacity: 0.7; transform-origin: 249.642px 253.469px;" class="animable" id="el8jefyu8x8f9"></path></g></g><g id="freepik--Receipt--inject-124" class="animable" style="transform-origin: 304.58px 202.26px;"><g id="eln681qlqwgom"><rect x="204.08" y="36.26" width="207" height="339" style="fill: rgb(38, 50, 56); opacity: 0.2; transform-origin: 307.58px 205.76px; transform: rotate(4.2deg);" class="animable" id="elnxsvzrtuv1"></rect></g><g id="elc52br5swbr8"><rect x="198.08" y="29.26" width="207" height="339" style="fill: rgb(255, 255, 255); stroke: rgb(38, 50, 56); stroke-miterlimit: 10; transform-origin: 301.58px 198.76px; transform: rotate(4.2deg);" class="animable" id="elq34re5bso2h"></rect></g><path d="M294.61,59.12l0,.62-2.43-.18.06-.75c.15-2.06-.55-3.33-2.38-3.47s-2.7,1-2.85,3c-.38,5.14,7.27,6.19,6.8,12.64-.25,3.47-2.09,5.6-5.59,5.34s-5-2.63-4.72-6.1l.1-1.31,2.39.18-.11,1.44c-.15,2.06.61,3.33,2.45,3.47s2.77-1,2.92-3.08c.37-5.1-7.25-6.15-6.77-12.6.26-3.53,2.05-5.61,5.49-5.35S294.87,55.65,294.61,59.12Z" style="fill: rgb(38, 50, 56); transform-origin: 289.053px 64.6448px;" id="elov2p7i1rwr" class="animable"></path><path d="M298.9,76.93l1.5-20.58L296.18,56l.17-2.32,11,.8-.18,2.33-4.22-.31-1.51,20.58Z" style="fill: rgb(38, 50, 56); transform-origin: 301.765px 65.38px;" id="elebtda9s17un" class="animable"></path><path d="M308.44,60.16c.26-3.5,2.16-5.63,5.66-5.37s5.1,2.64,4.85,6.14l-.87,11.85c-.26,3.47-2.16,5.63-5.69,5.37s-5.07-2.67-4.81-6.14Zm1.65,12.16c-.16,2.1.64,3.37,2.47,3.51s2.8-1,3-3.11l.88-12.1c.16-2.06-.6-3.37-2.47-3.51s-2.81,1-3,3.11Z" style="fill: rgb(38, 50, 56); transform-origin: 313.264px 66.4699px;" id="el9fqzc73rzcb" class="animable"></path><path d="M326.87,56c3.6.26,5,2.2,4.73,5.61l-.14,1.86c-.19,2.52-1.19,4-3.19,4.5,2,.78,2.71,2.54,2.53,5l-.27,3.57a5.78,5.78,0,0,0,.26,2.78l-2.59-.19a6.14,6.14,0,0,1-.22-2.81l.27-3.6c.19-2.58-1-3.49-3.09-3.65l-1.8-.13-.72,9.78-2.55-.18,1.68-22.91Zm-1.44,10.75c2,.15,3.29-.42,3.47-2.91l.16-2.19c.15-2.06-.52-3.2-2.42-3.33l-2.49-.19-.62,8.48Z" style="fill: rgb(38, 50, 56); transform-origin: 325.861px 67.475px;" id="eljufl1hbd2m" class="animable"></path><path d="M342.06,67.27l-.16,2.29-5.6-.41-.6,8.15,6.87.5-.17,2.32L333,79.43l1.68-22.9,9.42.69-.17,2.32L337,59l-.57,7.82Z" style="fill: rgb(38, 50, 56); transform-origin: 338.55px 68.325px;" id="elnl2ge111xj" class="animable"></path><path d="M269.51,96.59,270.37,85l-2.62-.19,0-.36,5.62.41,0,.36L270.74,85l-.85,11.63Z" style="fill: rgb(38, 50, 56); transform-origin: 270.56px 90.54px;" id="el74f8n1inzkb" class="animable"></path><path d="M278,90.93l0,.34L274.42,91,274,96.56l4.2.31,0,.36-4.57-.34.88-12,4.57.33,0,.36-4.2-.3-.4,5.38Z" style="fill: rgb(38, 50, 56); transform-origin: 276.355px 91.06px;" id="elazyicsa3y9v" class="animable"></path><path d="M279.52,97.33l.88-12,.38,0L279.92,97l4,.29,0,.36Z" style="fill: rgb(38, 50, 56); transform-origin: 281.72px 91.49px;" id="el43yyyxk5we2" class="animable"></path><path d="M285.71,96.39l-.11,1.38-.37,0,.1-1.39Z" style="fill: rgb(38, 50, 56); transform-origin: 285.47px 97.075px;" id="elfq0umbvne1g" class="animable"></path><path d="M290.28,89c.12-1.7.94-3,2.77-2.84s2.46,1.52,2.33,3.22l-.44,6.1c-.13,1.67-.95,3-2.78,2.84s-2.45-1.54-2.33-3.22Zm-.07,6.13c-.11,1.49.38,2.73,2,2.85s2.26-1,2.37-2.53l.45-6.12c.11-1.47-.39-2.72-2-2.83s-2.27,1-2.37,2.51Z" style="fill: rgb(38, 50, 56); transform-origin: 292.606px 92.2399px;" id="el7gr63owieij" class="animable"></path><path d="M301.74,89.9c-.25,3.34-4.89,4.12-5.26,8.24v.07l4.56.33,0,.36-4.94-.36,0-.26c.33-4.48,5-5.17,5.27-8.39.11-1.51-.28-2.78-1.94-2.9s-2.22,1.14-2.33,2.58l0,.65-.36,0,0-.64c.12-1.66.88-3,2.73-2.91S301.86,88.2,301.74,89.9Z" style="fill: rgb(38, 50, 56); transform-origin: 298.928px 92.7829px;" id="elcglxcgwtcbg" class="animable"></path><path d="M308.08,90.33l0,.29a2.51,2.51,0,0,1-1.9,2.36,2.27,2.27,0,0,1,1.54,2.52l-.07.93c-.12,1.68-.89,3-2.72,2.85s-2.42-1.54-2.3-3.22l0-.57.38,0,0,.57c-.11,1.47.33,2.73,1.93,2.84s2.23-1.06,2.34-2.55l.06-.91a2,2,0,0,0-1.82-2.35l-.87-.07,0-.34.89.07a2.16,2.16,0,0,0,2.14-2.14l0-.34c.11-1.49-.35-2.73-1.94-2.85s-2.21,1-2.32,2.52l0,.36-.37,0,0-.34c.12-1.68.91-3,2.74-2.85S308.2,88.65,308.08,90.33Z" style="fill: rgb(38, 50, 56); transform-origin: 305.355px 93.195px;" id="elq5o5u3ak2l" class="animable"></path><path d="M314.5,90.73v.08l-.36,0v-.11c.1-1.45-.36-2.64-1.95-2.76s-2.29,1-2.4,2.55l-.24,3.31a2.21,2.21,0,0,1,2.38-1.26c1.79.13,2.37,1.52,2.25,3.18l-.09,1.2c-.12,1.68-.94,3-2.77,2.85s-2.47-1.55-2.35-3.22l.45-6.11c.12-1.69.94-3,2.79-2.84S314.62,89.05,314.5,90.73Zm-5.07,4.64-.08,1.18c-.11,1.49.38,2.72,2,2.84s2.27-1,2.38-2.52l.08-1.18c.11-1.46-.38-2.7-2-2.81S309.54,94,309.43,95.37Z" style="fill: rgb(38, 50, 56); transform-origin: 311.736px 93.6842px;" id="elqp4nl1facx" class="animable"></path><path d="M316.27,93.29a2.2,2.2,0,0,1,2.12-.91c1.76.12,2.31,1.54,2.19,3.17l-.13,1.82c-.12,1.66-.91,3-2.72,2.85s-2.42-1.56-2.3-3.22l0-.52.38,0,0,.52c-.11,1.45.35,2.71,1.93,2.83s2.23-1.06,2.33-2.52l.14-1.8c.1-1.44-.36-2.7-1.95-2.81A2,2,0,0,0,316.17,94v.14l-.36,0,.76-6.16,4.33.32,0,.36-4-.3Z" style="fill: rgb(38, 50, 56); transform-origin: 318.158px 94.1057px;" id="elcgx49umop3b" class="animable"></path><path d="M329.71,89.29,325.08,89l0-.36,5,.36,0,.36-4.43,11.39-.4,0Z" style="fill: rgb(38, 50, 56); transform-origin: 327.58px 94.695px;" id="el2gqqibqbnbp" class="animable"></path><path d="M336.52,92.24l0,.4a2.29,2.29,0,0,1-1.91,2.42c1.26.39,1.63,1.43,1.53,2.73l-.05.81c-.13,1.71-1,2.89-2.86,2.75s-2.55-1.43-2.42-3.14l.06-.8c.1-1.34.61-2.27,2-2.48a2.27,2.27,0,0,1-1.59-2.68l0-.4c.12-1.71,1.08-2.79,2.84-2.66S336.65,90.53,336.52,92.24Zm-4.9-.36,0,.43a2.27,2.27,0,1,0,4.52.33l0-.43c.11-1.5-.56-2.57-2.08-2.68S331.73,90.37,331.62,91.88Zm-.4,5.52-.06.84c-.12,1.52.51,2.65,2.07,2.77s2.34-.91,2.45-2.44l.06-.84c.11-1.56-.53-2.43-2.09-2.55S331.33,95.84,331.22,97.4Z" style="fill: rgb(38, 50, 56); transform-origin: 333.664px 95.2703px;" id="ellhxffqvmriq" class="animable"></path><path d="M343,92.89,342.51,99c-.13,1.69-.93,3-2.78,2.86s-2.46-1.49-2.33-3.18v-.09l.36,0v.1c-.11,1.47.4,2.68,2,2.8s2.26-1,2.37-2.57l.25-3.34A2.13,2.13,0,0,1,340,96.87c-1.78-.13-2.37-1.52-2.25-3.18l.09-1.18c.12-1.7.94-3,2.77-2.86S343.08,91.19,343,92.89Zm-4.73-.37-.08,1.18c-.11,1.48.38,2.72,2,2.84s2.26-1,2.37-2.52l.09-1.18c.11-1.47-.39-2.72-2-2.83S338.33,91.05,338.22,92.52Z" style="fill: rgb(38, 50, 56); transform-origin: 340.195px 95.755px;" id="eleicwj62bleq" class="animable"></path><path d="M344.31,93c.12-1.69.94-3,2.77-2.84s2.46,1.52,2.33,3.22l-.44,6.1c-.13,1.68-1,3-2.78,2.85s-2.45-1.55-2.33-3.23Zm-.07,6.13c-.11,1.49.38,2.74,2,2.85s2.26-1,2.37-2.53l.45-6.12c.11-1.47-.39-2.71-2-2.83s-2.27,1-2.38,2.52Z" style="fill: rgb(38, 50, 56); transform-origin: 346.636px 96.2442px;" id="elcn2ibg64uhr" class="animable"></path><path d="M350.75,93.46c.13-1.7.94-3,2.78-2.85s2.45,1.53,2.33,3.22l-.45,6.1c-.12,1.68-.94,3-2.78,2.85s-2.45-1.54-2.33-3.22Zm-.07,6.13c-.11,1.49.38,2.73,2,2.85s2.26-1,2.37-2.54l.45-6.11c.11-1.48-.39-2.72-2-2.84s-2.26,1-2.37,2.52Z" style="fill: rgb(38, 50, 56); transform-origin: 353.08px 96.6949px;" id="elm31y2x1hvem" class="animable"></path><path d="M228.23,113.59c1.83.14,2.51,1.48,2.38,3.19l-.44,6c-.12,1.69-1,2.92-2.8,2.79l-2.52-.19.88-12Zm-.86,11.64c1.62.11,2.31-1,2.42-2.44l.45-6.05c.11-1.51-.44-2.67-2-2.79l-2.12-.15-.83,11.27Z" style="fill: rgb(38, 50, 56); transform-origin: 227.738px 119.48px;" id="elr2y9x2l8zvl" class="animable"></path><path d="M232.47,123.12l-.91,2.78-.34,0,3.78-11.8.53,0,2.08,12.23-.37,0-.5-2.88Zm.1-.34,4.13.3-1.48-8.55Z" style="fill: rgb(38, 50, 56); transform-origin: 234.415px 120.215px;" id="el07zxd25aiusk" class="animable"></path><path d="M240.53,126.55l.85-11.63-2.61-.19,0-.36,5.6.41,0,.36-2.62-.19-.86,11.63Z" style="fill: rgb(38, 50, 56); transform-origin: 241.57px 120.475px;" id="elh78qie6osbi" class="animable"></path><path d="M248.94,120.88l0,.34-3.53-.25-.41,5.55,4.2.31,0,.36-4.58-.34.88-12,4.57.34,0,.36-4.2-.31-.39,5.38Z" style="fill: rgb(38, 50, 56); transform-origin: 247.345px 121.02px;" id="elt1mzs4rhpdd" class="animable"></path><path d="M244.17,138.83c1.75.12,2.25,1,2.14,2.65l-.06.77c-.1,1.34-.52,2.12-1.89,2.22,1.41.31,1.87,1.33,1.77,2.72l-.08,1.06c-.12,1.69-.92,2.7-2.74,2.57l-2.41-.18.88-12Zm-.86,5.41c1.66.12,2.43-.22,2.56-2l.06-.8c.1-1.41-.27-2.17-1.78-2.28l-2-.15-.38,5.09Zm0,6.22c1.57.12,2.22-.73,2.33-2.24l.08-1.08c.13-1.73-.65-2.42-2.29-2.54l-1.73-.13-.43,5.84Z" style="fill: rgb(38, 50, 56); transform-origin: 243.612px 144.736px;" id="elurzlgq5m01" class="animable"></path><path d="M247.18,151.11l.88-12,.38,0-.85,11.63,4,.3,0,.36Z" style="fill: rgb(38, 50, 56); transform-origin: 249.385px 145.255px;" id="elzpfej1murcs" class="animable"></path><path d="M253.47,148.6c-.11,1.44.31,2.73,1.91,2.85s2.2-1.1,2.3-2.54l.67-9,.36,0-.67,9c-.12,1.65-.87,3-2.69,2.87s-2.38-1.59-2.26-3.23l.66-9,.38,0Z" style="fill: rgb(38, 50, 56); transform-origin: 255.892px 145.669px;" id="eldko0ydq4ggq" class="animable"></path><path d="M263.54,146l0,.34L260,146.1l-.41,5.55,4.2.31,0,.36-4.57-.33.88-12,4.57.34,0,.36-4.2-.31-.39,5.38Z" style="fill: rgb(38, 50, 56); transform-origin: 261.945px 146.155px;" id="el3jwpvd5g3so" class="animable"></path><path d="M273.38,143.88v.22l-.38,0,0-.24c.1-1.43-.34-2.67-1.9-2.78s-2.19,1-2.3,2.45c-.22,3.07,4.38,3.32,4.14,6.57-.13,1.67-.91,2.94-2.74,2.8s-2.41-1.5-2.28-3.16l0-.59.36,0-.05.6c-.1,1.46.38,2.65,2,2.76s2.23-1,2.34-2.45c.22-3-4.38-3.26-4.14-6.57.13-1.75,1-2.89,2.69-2.78S273.5,142.23,273.38,143.88Z" style="fill: rgb(38, 50, 56); transform-origin: 270.648px 146.807px;" id="elyq3fm0ulvm" class="animable"></path><path d="M274.88,147.28l-.43,5.83-.38,0,.88-12,.38,0-.43,5.83,4.34.32.42-5.83.38,0-.88,12-.38,0,.43-5.82Z" style="fill: rgb(38, 50, 56); transform-origin: 277.055px 147.27px;" id="elpwxormionfs" class="animable"></path><path d="M281.79,141.59l-.88,12-.38,0,.88-12Z" style="fill: rgb(38, 50, 56); transform-origin: 281.16px 147.59px;" id="el3bjnoqlewhv" class="animable"></path><path d="M285.54,141.86c1.78.13,2.39,1.23,2.27,2.87l-.08,1.08c-.11,1.47-.75,2.24-2.09,2.38a2.12,2.12,0,0,1,1.73,2.54l-.14,1.88a2.64,2.64,0,0,0,.22,1.45l-.41,0a2.71,2.71,0,0,1-.18-1.44l.13-1.89c.13-1.76-.9-2.3-2.45-2.42l-1.48-.11-.4,5.54-.38,0,.88-12Zm-1,6.06c1.66.12,2.65-.23,2.79-2.08l.08-1.1c.11-1.46-.39-2.41-1.93-2.52l-2-.15-.42,5.74Z" style="fill: rgb(38, 50, 56); transform-origin: 285.052px 147.9px;" id="eleyjftfhfx24" class="animable"></path><path d="M291,154.32l.85-11.63-2.61-.19,0-.36,5.6.41,0,.36-2.62-.19-.86,11.63Z" style="fill: rgb(38, 50, 56); transform-origin: 292.04px 148.245px;" id="elmro2wl7p8t" class="animable"></path><path d="M365,147.62c1.69.21,2.21,1.58,2.09,3.15l0,.23-.36,0,0-.24c.11-1.42-.36-2.64-1.91-2.76s-2.2,1-2.3,2.43c-.23,3.09,4.37,3.29,4.13,6.54-.11,1.6-.84,2.85-2.54,2.82l-.08,1-.32,0,.07-1c-1.71-.19-2.26-1.54-2.15-3.15l0-.6.38,0,0,.62c-.11,1.46.36,2.65,1.93,2.76s2.23-1,2.34-2.45c.22-3-4.38-3.23-4.14-6.54.12-1.68.88-2.81,2.53-2.79l.08-1.08.32,0Z" style="fill: rgb(38, 50, 56); transform-origin: 364.361px 153.675px;" id="el85vccio8of6" class="animable"></path><path d="M376.19,151.41v.08l-.36,0v-.1c.11-1.45-.36-2.64-1.95-2.76s-2.28,1-2.39,2.55l-.25,3.3a2.21,2.21,0,0,1,2.39-1.25c1.78.13,2.37,1.52,2.25,3.18l-.09,1.2c-.13,1.68-1,3-2.78,2.84s-2.47-1.54-2.35-3.22l.45-6.1c.13-1.7.94-3,2.79-2.84S376.31,149.73,376.19,151.41Zm-5.06,4.64-.09,1.18c-.11,1.49.39,2.72,2,2.83s2.26-1,2.37-2.51l.09-1.18c.1-1.46-.39-2.7-2-2.82S371.23,154.64,371.13,156.05Z" style="fill: rgb(38, 50, 56); transform-origin: 373.426px 154.37px;" id="elsqy5a5imctq" class="animable"></path><path d="M377.4,159.26l-.1,1.39-.38,0,.11-1.38Z" style="fill: rgb(38, 50, 56); transform-origin: 377.16px 159.955px;" id="eli12v9qrmiih" class="animable"></path><path d="M384.43,152.08l-.45,6.08c-.13,1.7-.93,3-2.78,2.86s-2.46-1.49-2.33-3.18v-.09l.36,0v.1c-.11,1.48.4,2.68,2,2.8s2.26-1,2.37-2.56l.25-3.34a2.15,2.15,0,0,1-2.37,1.29c-1.78-.13-2.37-1.52-2.25-3.18l.09-1.19c.12-1.69.94-3,2.78-2.86S384.55,150.38,384.43,152.08Zm-4.73-.37-.09,1.19c-.11,1.47.39,2.71,2,2.83s2.26-1,2.37-2.51l.09-1.19c.11-1.47-.39-2.71-2-2.83S379.81,150.24,379.7,151.71Z" style="fill: rgb(38, 50, 56); transform-origin: 381.649px 154.915px;" id="elvet997n1rac" class="animable"></path><path d="M386.17,154.57a2.21,2.21,0,0,1,2.12-.92c1.77.13,2.31,1.55,2.2,3.18l-.14,1.82c-.12,1.66-.91,3-2.72,2.85s-2.42-1.56-2.3-3.22l0-.52.38,0,0,.52c-.11,1.45.35,2.71,1.93,2.82s2.23-1,2.34-2.51l.13-1.8c.1-1.44-.36-2.7-1.95-2.81a2,2,0,0,0-2.09,1.29v.14l-.36,0,.76-6.16,4.33.32,0,.36-4-.3Z" style="fill: rgb(38, 50, 56); transform-origin: 388.058px 155.381px;" id="elik90z0de7dg" class="animable"></path><path d="M241.87,173.78l-.55,0L240,161.58l.38,0,1.25,11.64L244.58,162l.46,0,1.12,11.49L249,162.24l.34,0-3,11.84-.5,0-1.12-11.25Z" style="fill: rgb(38, 50, 56); transform-origin: 244.67px 167.83px;" id="eltcc1dsstuph" class="animable"></path><path d="M250.61,168.56l-.43,5.83-.38,0,.88-12,.38,0-.43,5.83,4.34.32.43-5.83.37,0-.88,12-.37,0,.42-5.83Z" style="fill: rgb(38, 50, 56); transform-origin: 252.785px 168.55px;" id="el7riz9qtpakw" class="animable"></path><path d="M257.52,162.87l-.88,12-.38,0,.88-12Z" style="fill: rgb(38, 50, 56); transform-origin: 256.89px 168.87px;" id="el3lbtn3fdh3x" class="animable"></path><path d="M260.26,175.13l.85-11.64-2.61-.19,0-.36,5.6.41,0,.36-2.62-.19-.86,11.63Z" style="fill: rgb(38, 50, 56); transform-origin: 261.3px 169.045px;" id="elc8vl4yz4dfm" class="animable"></path><path d="M268.66,169.46l0,.34-3.53-.26-.41,5.55,4.2.31,0,.36-4.57-.34.88-12,4.57.33,0,.36-4.2-.3-.39,5.38Z" style="fill: rgb(38, 50, 56); transform-origin: 267.075px 169.59px;" id="elqxivrprvlx" class="animable"></path><path d="M278.5,167.32v.22l-.38,0,0-.24c.1-1.42-.34-2.66-1.9-2.77s-2.19,1-2.3,2.45c-.22,3.07,4.38,3.32,4.14,6.57-.12,1.66-.91,2.93-2.74,2.8s-2.41-1.5-2.28-3.17l0-.58.36,0-.05.6c-.1,1.45.38,2.64,2,2.76s2.22-1,2.33-2.45c.22-3-4.38-3.27-4.14-6.57.13-1.75,1-2.9,2.69-2.79S278.63,165.67,278.5,167.32Z" style="fill: rgb(38, 50, 56); transform-origin: 275.769px 170.251px;" id="ela00i6h3tqjo" class="animable"></path><path d="M280,170.72l-.43,5.82-.38,0,.88-12,.38,0-.43,5.82,4.34.32.42-5.82.38,0-.88,12-.38,0,.43-5.82Z" style="fill: rgb(38, 50, 56); transform-origin: 282.175px 170.7px;" id="elcchige9rj55" class="animable"></path><path d="M286.91,165,286,177l-.38,0,.88-12Z" style="fill: rgb(38, 50, 56); transform-origin: 286.265px 171px;" id="eli7yrr9lvs2o" class="animable"></path><path d="M290.66,165.3c1.78.13,2.39,1.22,2.27,2.87l-.08,1.08c-.11,1.47-.75,2.24-2.08,2.38a2.12,2.12,0,0,1,1.72,2.54l-.14,1.88a2.65,2.65,0,0,0,.22,1.45l-.41,0A2.75,2.75,0,0,1,292,176l.13-1.88c.13-1.77-.89-2.31-2.45-2.42l-1.48-.11-.4,5.54-.38,0,.88-12Zm-1,6.06c1.66.12,2.66-.24,2.79-2.09l.08-1.09c.11-1.46-.39-2.41-1.93-2.52l-2-.15-.42,5.74Z" style="fill: rgb(38, 50, 56); transform-origin: 290.182px 171.315px;" id="ele68fd2npg9g" class="animable"></path><path d="M296.16,177.76l.85-11.63-2.61-.2,0-.36,5.6.42,0,.36-2.62-.2-.86,11.64Z" style="fill: rgb(38, 50, 56); transform-origin: 297.2px 171.68px;" id="el4kpoiqw7n39" class="animable"></path><path d="M363.34,170.56c1.69.21,2.21,1.58,2.1,3.15l0,.23-.36,0,0-.24c.1-1.42-.36-2.65-1.92-2.76s-2.19,1-2.3,2.43c-.22,3.09,4.38,3.29,4.14,6.54-.11,1.6-.84,2.85-2.55,2.81l-.07,1-.32,0,.07-1c-1.71-.19-2.27-1.54-2.15-3.16l0-.6.37,0,0,.62c-.11,1.46.35,2.64,1.93,2.76s2.23-1,2.33-2.45c.23-3-4.38-3.23-4.13-6.54.12-1.68.87-2.81,2.53-2.79l.08-1.08.32,0Z" style="fill: rgb(38, 50, 56); transform-origin: 362.709px 176.6px;" id="el3wo4hv199i2" class="animable"></path><path d="M374.51,174.34v.09l-.36,0v-.1c.1-1.46-.36-2.64-1.95-2.76s-2.29,1-2.4,2.54l-.24,3.31a2.21,2.21,0,0,1,2.38-1.25c1.79.13,2.37,1.51,2.25,3.18l-.09,1.2c-.12,1.68-.94,3-2.77,2.84s-2.47-1.54-2.35-3.22l.45-6.1c.12-1.7.94-3,2.79-2.84S374.63,172.66,374.51,174.34ZM369.44,179l-.08,1.18c-.11,1.49.38,2.71,2,2.83s2.27-1,2.38-2.51l.08-1.18c.11-1.46-.38-2.7-2-2.82S369.55,177.58,369.44,179Z" style="fill: rgb(38, 50, 56); transform-origin: 371.746px 177.31px;" id="elyhzi09k2fjr" class="animable"></path><path d="M375.72,182.2l-.1,1.39-.38,0,.1-1.39Z" style="fill: rgb(38, 50, 56); transform-origin: 375.48px 182.895px;" id="elg1pxlbxgkna" class="animable"></path><path d="M382.74,175l-.44,6.08c-.13,1.7-.93,3-2.78,2.86s-2.46-1.49-2.33-3.18v-.09l.36,0v.1c-.11,1.47.4,2.68,2,2.8s2.27-1,2.38-2.57l.25-3.34A2.14,2.14,0,0,1,379.8,179c-1.79-.13-2.37-1.51-2.25-3.18l.09-1.18c.12-1.69.94-3,2.77-2.86S382.87,173.32,382.74,175Zm-4.73-.37-.08,1.19c-.11,1.47.38,2.71,2,2.83s2.26-1,2.37-2.52l.09-1.18c.11-1.47-.39-2.71-2-2.83S378.12,173.18,378,174.65Z" style="fill: rgb(38, 50, 56); transform-origin: 379.965px 177.86px;" id="el2t70u3cr1a7" class="animable"></path><path d="M384.49,177.51a2.19,2.19,0,0,1,2.12-.92c1.76.13,2.31,1.55,2.19,3.18l-.13,1.81c-.12,1.67-.91,3-2.73,2.85s-2.41-1.55-2.29-3.21l0-.52.37,0,0,.51c-.11,1.46.35,2.72,1.92,2.83s2.24-1.06,2.34-2.51l.13-1.8c.11-1.44-.35-2.7-1.94-2.82a2,2,0,0,0-2.1,1.3v.14l-.36,0,.77-6.16,4.33.31,0,.36-4-.29Z" style="fill: rgb(38, 50, 56); transform-origin: 386.372px 178.316px;" id="eljpfb67zp72l" class="animable"></path><path d="M240,199.71l1.11-15.05-3.09-.23.13-1.7,8,.59-.13,1.7-3.08-.23-1.11,15.06Z" style="fill: rgb(38, 50, 56); transform-origin: 242.085px 191.29px;" id="el2fldjsfc534" class="animable"></path><path d="M247.06,187.45c.19-2.56,1.58-4.12,4.14-3.93s3.73,1.93,3.54,4.49l-.63,8.67c-.19,2.54-1.58,4.12-4.17,3.93s-3.7-2-3.52-4.5Zm1.2,8.9c-.11,1.53.47,2.46,1.81,2.56s2.05-.74,2.16-2.27l.65-8.86c.11-1.51-.44-2.46-1.81-2.56s-2,.76-2.16,2.27Z" style="fill: rgb(38, 50, 56); transform-origin: 250.581px 192.065px;" id="elglqhpm3lkqt" class="animable"></path><path d="M258,201,259.13,186l-3.09-.23.13-1.7,8,.59-.13,1.7-3.09-.23-1.1,15.06Z" style="fill: rgb(38, 50, 56); transform-origin: 260.105px 192.63px;" id="eluwszyswv35" class="animable"></path><path d="M265.5,198.19l-.89,3.33-1.73-.13,4.44-16.52,2.7.2,2,17-1.86-.14-.4-3.42Zm.36-1.59,3.73.28-1.18-9.81Z" style="fill: rgb(38, 50, 56); transform-origin: 267.45px 193.47px;" id="elkcfmo1h0w6a" class="animable"></path><path d="M273.46,202.17l1.23-16.76,1.87.14-1.11,15,4.79.35-.12,1.7Z" style="fill: rgb(38, 50, 56); transform-origin: 276.85px 194.005px;" id="elnhp6rn8tp2" class="animable"></path><path d="M341.2,190.36c2,.44,2.83,2.09,2.66,4.34l0,.45-1.75-.13,0-.57c.11-1.49-.42-2.44-1.76-2.54s-2,.77-2.09,2.25c-.28,3.76,5.35,4.2,5,8.92-.16,2.25-1.24,3.78-3.29,3.92l-.1,1.27-1.53-.12.09-1.27c-2.06-.44-2.87-2.08-2.71-4.36l.08-1,1.74.13-.08,1.15c-.11,1.51.45,2.42,1.79,2.51s2-.71,2.14-2.22c.27-3.74-5.33-4.19-5-8.91.17-2.3,1.21-3.74,3.24-3.9l.1-1.34,1.54.11Z" style="fill: rgb(38, 50, 56); transform-origin: 339.791px 198.605px;" id="elu8cdfsvw75q" class="animable"></path><path d="M352.92,194.2a4.94,4.94,0,0,1-2.37.55l.11-1.53a2.88,2.88,0,0,0,3-2l1.29.09-1.23,16.76-1.84-.14Z" style="fill: rgb(38, 50, 56); transform-origin: 352.75px 199.645px;" id="elyhwufx4apfc" class="animable"></path><path d="M365,196.1l0,.43a3.35,3.35,0,0,1-2.29,3.3c1.38.63,1.9,1.94,1.78,3.62l-.09,1.29c-.19,2.56-1.51,4.15-4.1,4s-3.63-1.95-3.44-4.51l.08-1.15,1.75.13-.09,1.27c-.12,1.5.44,2.46,1.78,2.56s2-.74,2.15-2.44l.1-1.3c.12-1.65-.52-2.49-1.93-2.64l-1-.08.12-1.67,1.1.08A2,2,0,0,0,363,196.8l.06-.77c.13-1.72-.41-2.65-1.77-2.75s-2,.79-2.15,2.3l-.06.86-1.75-.13.06-.76c.19-2.57,1.51-4.13,4.07-3.94S365.15,193.54,365,196.1Z" style="fill: rgb(38, 50, 56); transform-origin: 360.926px 200.172px;" id="elk127j4zv198" class="animable"></path><path d="M367.81,206.75l-.17,2.32-1.79-.13.17-2.32Z" style="fill: rgb(38, 50, 56); transform-origin: 366.83px 207.845px;" id="elebdm60mp52d" class="animable"></path><path d="M378,197.06l-.63,8.54c-.2,2.66-1.52,4.25-4.2,4.05s-3.66-1.93-3.47-4.49l0-.31,1.75.13,0,.43c-.11,1.51.47,2.44,1.81,2.54s2.13-.76,2.26-2.53l.27-3.76a2.68,2.68,0,0,1-2.83,1.57c-2.16-.16-3-1.76-2.83-4.18l.19-2.56c.19-2.56,1.56-4.12,4.14-3.93S378.19,194.49,378,197.06Zm-5.84-.53-.18,2.52c-.11,1.5.47,2.46,1.81,2.56s2.05-.76,2.16-2.27l.19-2.52c.11-1.53-.45-2.46-1.81-2.56S372.28,195,372.17,196.53Z" style="fill: rgb(38, 50, 56); transform-origin: 373.849px 201.106px;" id="el8wyrj4148lg" class="animable"></path><path d="M379.66,197.18c.18-2.56,1.57-4.12,4.13-3.93s3.74,1.93,3.55,4.49l-.63,8.64c-.19,2.56-1.58,4.15-4.17,4s-3.71-2-3.52-4.52Zm1.2,8.89c-.11,1.51.47,2.47,1.81,2.57s2.05-.77,2.16-2.28l.65-8.85c.11-1.53-.44-2.49-1.81-2.59s-2.05.76-2.16,2.3Z" style="fill: rgb(38, 50, 56); transform-origin: 383.18px 201.812px;" id="eleooaf2dg069" class="animable"></path><path d="M243.86,215.29l-.11,1.51-1.77-.13.12-1.61c.11-1.5-.42-2.46-1.79-2.56s-2,.77-2.14,2.28l-.65,8.85c-.11,1.51.45,2.47,1.79,2.56s2-.76,2.14-2.27l.16-2.18,1.77.13-.15,2.09c-.19,2.53-1.51,4.12-4.09,3.93s-3.64-1.95-3.45-4.49l.63-8.66c.19-2.54,1.51-4.13,4.07-3.94S244.05,212.75,243.86,215.29Z" style="fill: rgb(38, 50, 56); transform-origin: 239.775px 219.345px;" id="elcgw5rsyzsyd" class="animable"></path><path d="M246.77,224.89l-.9,3.33-1.72-.13,4.44-16.52,2.7.2,2,17-1.87-.14-.4-3.42Zm.36-1.59,3.73.28-1.18-9.81Z" style="fill: rgb(38, 50, 56); transform-origin: 248.72px 220.17px;" id="el8qowlswxvkb" class="animable"></path><path d="M262.92,216.66l0,.46-1.77-.13,0-.55c.11-1.51-.4-2.44-1.74-2.54s-2,.75-2.09,2.23c-.27,3.76,5.33,4.53,5,9.25-.18,2.54-1.53,4.1-4.09,3.91s-3.63-1.93-3.45-4.46l.07-1,1.75.13-.08,1.05c-.11,1.51.45,2.44,1.79,2.54s2-.74,2.14-2.25c.27-3.74-5.3-4.51-5-9.22.19-2.59,1.51-4.1,4-3.92S263.1,214.13,262.92,216.66Z" style="fill: rgb(38, 50, 56); transform-origin: 258.849px 220.726px;" id="eliezeha9k7b" class="animable"></path><path d="M266.05,222.12l-.55,7.54-1.87-.14,1.23-16.76,1.87.14-.55,7.54,4.11.3.56-7.54,1.86.14-1.22,16.76-1.87-.14.55-7.54Z" style="fill: rgb(38, 50, 56); transform-origin: 268.17px 221.43px;" id="elm0ptyo1r3hk" class="animable"></path><path d="M337.93,218.2c2,.43,2.83,2.08,2.66,4.33l0,.46-1.75-.13,0-.58c.11-1.48-.42-2.43-1.76-2.53s-2,.77-2.09,2.25c-.28,3.76,5.35,4.19,5,8.91-.16,2.25-1.24,3.78-3.29,3.92l-.1,1.27-1.53-.11.09-1.27c-2.06-.44-2.88-2.09-2.71-4.36l.08-1,1.74.13-.08,1.15c-.11,1.5.45,2.41,1.79,2.51s2-.72,2.14-2.23c.27-3.73-5.33-4.19-5-8.91.17-2.29,1.21-3.73,3.24-3.9l.1-1.34,1.54.11Z" style="fill: rgb(38, 50, 56); transform-origin: 336.52px 226.435px;" id="el5xjqsgqjsi7" class="animable"></path><path d="M353.69,223.37c-.37,5-6.17,6.46-6.48,10.31l0,.26,5.51.41-.13,1.69-7.35-.53.11-1.44c.4-5.41,6.15-6,6.49-10.76.13-1.73-.38-2.68-1.77-2.78s-2,.84-2.14,2.32l-.11,1.48-1.75-.12.1-1.37c.19-2.56,1.49-4.17,4.07-4S353.88,220.81,353.69,223.37Z" style="fill: rgb(38, 50, 56); transform-origin: 349.476px 227.434px;" id="elegzzq0wz1jb" class="animable"></path><path d="M355.28,223.46c.18-2.56,1.57-4.12,4.13-3.93s3.74,1.94,3.55,4.5l-.64,8.64c-.18,2.56-1.57,4.14-4.16,4s-3.71-2-3.52-4.52Zm1.2,8.9c-.12,1.51.46,2.47,1.8,2.56s2.06-.76,2.17-2.27l.65-8.86c.11-1.53-.44-2.48-1.81-2.58s-2.05.76-2.16,2.29Z" style="fill: rgb(38, 50, 56); transform-origin: 358.8px 228.097px;" id="el4dll175qu89" class="animable"></path><path d="M365.76,234.68l-.17,2.32-1.79-.13.17-2.32Z" style="fill: rgb(38, 50, 56); transform-origin: 364.78px 235.775px;" id="elcknfh7km4os" class="animable"></path><path d="M368.3,224.42c.18-2.56,1.57-4.12,4.13-3.93s3.74,1.93,3.55,4.49l-.63,8.64c-.19,2.57-1.58,4.15-4.17,4s-3.71-2-3.52-4.52Zm1.2,8.9c-.11,1.5.47,2.46,1.81,2.56s2.05-.77,2.16-2.27l.65-8.86c.11-1.53-.44-2.49-1.81-2.59s-2.05.77-2.16,2.3Z" style="fill: rgb(38, 50, 56); transform-origin: 371.82px 229.052px;" id="elrxfn681dfop" class="animable"></path><path d="M377.61,225.1c.18-2.56,1.57-4.12,4.14-3.93s3.73,1.93,3.54,4.5l-.63,8.64c-.19,2.56-1.58,4.14-4.17,3.95s-3.71-2-3.52-4.52Zm1.2,8.9c-.11,1.51.47,2.46,1.81,2.56s2.05-.76,2.16-2.27l.65-8.86c.11-1.53-.44-2.48-1.81-2.58s-2.05.76-2.16,2.29Z" style="fill: rgb(38, 50, 56); transform-origin: 381.13px 229.715px;" id="el1yifdstzhhj" class="animable"></path><path d="M241.59,246.21l-.11,1.5-1.77-.13.12-1.6c.11-1.51-.42-2.46-1.79-2.56s-2,.77-2.14,2.27l-.65,8.86c-.11,1.51.45,2.46,1.79,2.56s2-.76,2.14-2.27l.16-2.18,1.77.13-.15,2.08c-.19,2.54-1.51,4.13-4.09,3.94s-3.64-1.95-3.45-4.49l.63-8.67c.19-2.53,1.51-4.12,4.07-3.93S241.78,243.67,241.59,246.21Z" style="fill: rgb(38, 50, 56); transform-origin: 237.505px 250.265px;" id="el4ix64pdylr8" class="animable"></path><path d="M244.78,251.64l-.55,7.54-1.87-.14,1.23-16.75,1.87.13L244.9,250l4.12.3.55-7.54,1.87.14-1.23,16.76-1.86-.14.55-7.54Z" style="fill: rgb(38, 50, 56); transform-origin: 246.9px 250.975px;" id="elspmjuvh3gek" class="animable"></path><path d="M254.26,256.52l-.89,3.33-1.72-.13,4.43-16.52,2.71.2,2,17-1.87-.13-.4-3.43Zm.36-1.58,3.74.27-1.19-9.81Z" style="fill: rgb(38, 50, 56); transform-origin: 256.22px 251.8px;" id="elsyn8ovsy21k" class="animable"></path><path d="M263.88,260.62l-1.68-.12,1.23-16.76,2.37.17,3,12.4.89-12.11,1.65.12-1.23,16.76-1.94-.15-3.29-13.86Z" style="fill: rgb(38, 50, 56); transform-origin: 266.77px 252.41px;" id="elzux8s1b4rye" class="animable"></path><path d="M280.35,249.05l-.11,1.44-1.77-.13.11-1.54c.11-1.5-.42-2.46-1.78-2.56s-2,.77-2.14,2.28l-.65,8.85c-.12,1.51.44,2.47,1.78,2.56s2-.76,2.14-2.27l.25-3.35-1.73-.13.13-1.67,3.49.25-.36,4.94c-.19,2.53-1.51,4.12-4.09,3.93s-3.64-1.95-3.45-4.49l.64-8.66c.18-2.54,1.5-4.13,4.06-3.94S280.53,246.51,280.35,249.05Z" style="fill: rgb(38, 50, 56); transform-origin: 276.259px 253.105px;" id="el8lxg1jymhz" class="animable"></path><path d="M287.83,253l-.12,1.68-4.1-.3-.44,6,5,.37-.12,1.7-6.9-.51,1.23-16.76,6.9.51-.13,1.7-5-.37-.41,5.72Z" style="fill: rgb(38, 50, 56); transform-origin: 285.215px 253.815px;" id="el4o3koxwfhlh" class="animable"></path><path d="M250.22,324.41a2.24,2.24,0,0,1,2.12-.92c1.77.13,2.32,1.55,2.2,3.18l-.14,1.82c-.12,1.66-.9,3-2.72,2.85s-2.42-1.56-2.3-3.22l0-.52.38,0,0,.52c-.11,1.45.35,2.71,1.93,2.83s2.23-1.06,2.34-2.52l.13-1.8c.1-1.44-.35-2.7-1.95-2.81a2,2,0,0,0-2.09,1.29v.14l-.36,0,.76-6.16,4.34.32,0,.36-4-.3Z" style="fill: rgb(38, 50, 56); transform-origin: 252.113px 325.221px;" id="el8bpuqje6swb" class="animable"></path><path d="M258.51,320.42a2.41,2.41,0,0,1-2.1,1.19l0-.35a2.34,2.34,0,0,0,2.15-1.58l.36,0-.88,12-.38,0Z" style="fill: rgb(38, 50, 56); transform-origin: 257.665px 325.68px;" id="el83q2ul7mrqo" class="animable"></path><path d="M265.28,323.19c-.24,3.34-4.88,4.12-5.25,8.24v.07l4.56.34,0,.36-4.93-.37,0-.25c.33-4.49,5-5.18,5.27-8.4.11-1.51-.28-2.78-1.94-2.9s-2.23,1.14-2.33,2.58l-.05.65-.36,0,0-.64c.12-1.66.88-3.05,2.73-2.91S265.41,321.49,265.28,323.19Z" style="fill: rgb(38, 50, 56); transform-origin: 262.479px 326.075px;" id="el3i54lu0zolm" class="animable"></path><path d="M271.62,323.65c-.24,3.34-4.88,4.12-5.25,8.25V332l4.56.33,0,.36L266,332.3l0-.26c.33-4.49,5-5.18,5.27-8.4.11-1.51-.28-2.77-1.94-2.9s-2.22,1.15-2.33,2.59l-.05.65-.36,0,.05-.63c.12-1.66.88-3.05,2.73-2.92S271.75,322,271.62,323.65Z" style="fill: rgb(38, 50, 56); transform-origin: 268.819px 326.556px;" id="elbu148eebzcu" class="animable"></path><path d="M278,324.08l0,.29a2.53,2.53,0,0,1-1.9,2.36,2.3,2.3,0,0,1,1.54,2.53l-.07.92c-.12,1.68-.89,3-2.72,2.85s-2.42-1.54-2.3-3.22l0-.56.38,0,0,.56c-.11,1.48.33,2.73,1.92,2.85s2.23-1.06,2.34-2.55l.07-.91a2,2,0,0,0-1.82-2.36l-.88-.06,0-.34.89.06a2.15,2.15,0,0,0,2.14-2.13l0-.34c.11-1.5-.35-2.73-1.94-2.85s-2.22,1-2.32,2.52l0,.36-.38,0,0-.34c.12-1.68.9-3,2.74-2.85S278.09,322.4,278,324.08Z" style="fill: rgb(38, 50, 56); transform-origin: 275.272px 326.95px;" id="elwsfpen85ek" class="animable"></path><path d="M279.7,326.57a2.19,2.19,0,0,1,2.11-.91c1.77.13,2.32,1.55,2.2,3.17l-.13,1.82c-.13,1.66-.91,3-2.73,2.85s-2.42-1.56-2.29-3.22l0-.51.38,0,0,.52c-.1,1.46.36,2.71,1.93,2.83s2.23-1.06,2.34-2.52l.13-1.8c.11-1.44-.35-2.69-1.94-2.81a2,2,0,0,0-2.1,1.29v.14l-.36,0,.76-6.16,4.34.32,0,.36-4-.29Z" style="fill: rgb(38, 50, 56); transform-origin: 281.591px 327.386px;" id="ely2ffyuk3nar" class="animable"></path><path d="M286.06,327a2.19,2.19,0,0,1,2.11-.92c1.77.13,2.32,1.55,2.2,3.18l-.14,1.82c-.12,1.66-.9,3-2.72,2.85s-2.42-1.56-2.3-3.22l0-.52.38,0,0,.52c-.11,1.45.35,2.71,1.93,2.82s2.23-1.05,2.34-2.51l.13-1.8c.11-1.44-.35-2.7-1.95-2.81a2,2,0,0,0-2.09,1.29v.14l-.36,0,.76-6.16,4.34.32,0,.35-4-.29Z" style="fill: rgb(38, 50, 56); transform-origin: 287.943px 327.811px;" id="elx67dshnqcfm" class="animable"></path><path d="M297.1,325.42v.08l-.36,0v-.11c.1-1.45-.36-2.64-1.95-2.76s-2.29,1-2.4,2.55l-.24,3.31a2.21,2.21,0,0,1,2.38-1.26c1.79.13,2.37,1.52,2.25,3.18l-.09,1.2c-.12,1.68-.94,3-2.77,2.85s-2.47-1.55-2.35-3.23l.45-6.1c.12-1.69.94-3,2.79-2.84S297.22,323.74,297.1,325.42ZM292,330.06l-.08,1.18c-.11,1.49.38,2.72,2,2.84s2.26-1,2.37-2.52l.08-1.18c.11-1.46-.38-2.7-2-2.82S292.14,328.65,292,330.06Z" style="fill: rgb(38, 50, 56); transform-origin: 294.336px 328.374px;" id="el53m3ubk52cc" class="animable"></path><path d="M303.56,325.89V326l-.36,0v-.1c.1-1.46-.36-2.65-1.95-2.76s-2.28,1-2.4,2.54l-.24,3.31a2.2,2.2,0,0,1,2.39-1.25c1.78.13,2.37,1.51,2.24,3.18l-.08,1.19c-.13,1.68-1,3-2.78,2.85s-2.47-1.54-2.35-3.22l.45-6.1c.12-1.7.94-3,2.79-2.85S303.68,324.21,303.56,325.89Zm-5.07,4.64-.08,1.19c-.11,1.49.38,2.71,2,2.83s2.26-1,2.37-2.51l.08-1.19c.11-1.45-.38-2.69-2-2.81S298.6,329.13,298.49,330.53Z" style="fill: rgb(38, 50, 56); transform-origin: 300.796px 328.875px;" id="el34ds8r9h5hv" class="animable"></path><path d="M305.33,328.45a2.2,2.2,0,0,1,2.12-.91c1.77.13,2.32,1.55,2.2,3.17l-.14,1.82c-.12,1.66-.91,3-2.72,2.85s-2.42-1.56-2.3-3.22l0-.51.38,0,0,.51c-.11,1.46.35,2.71,1.93,2.83s2.23-1.06,2.34-2.52l.13-1.8c.1-1.44-.36-2.69-1.95-2.81a2,2,0,0,0-2.09,1.29v.14l-.36,0,.76-6.16,4.34.32,0,.36-4-.29Z" style="fill: rgb(38, 50, 56); transform-origin: 307.223px 329.261px;" id="elxr27n3pajrf" class="animable"></path><path d="M316.32,326.93c-.25,3.34-4.89,4.12-5.26,8.25v.07l4.56.33,0,.36-4.94-.36,0-.26c.33-4.49,5-5.18,5.27-8.4.11-1.51-.28-2.78-1.94-2.9s-2.22,1.15-2.33,2.59l-.05.65-.36,0,.05-.63c.12-1.66.88-3.06,2.73-2.92S316.44,325.23,316.32,326.93Z" style="fill: rgb(38, 50, 56); transform-origin: 313.508px 329.82px;" id="elypsdnwxtzfb" class="animable"></path><path d="M320,324.92a2.39,2.39,0,0,1-2.1,1.19l0-.34a2.34,2.34,0,0,0,2.15-1.58l.36,0-.88,12-.38,0Z" style="fill: rgb(38, 50, 56); transform-origin: 319.155px 330.19px;" id="elats87shsrvo" class="animable"></path><path d="M322.11,329.68a2.2,2.2,0,0,1,2.12-.91c1.76.13,2.31,1.55,2.19,3.17l-.13,1.82c-.12,1.66-.91,3-2.73,2.85s-2.41-1.55-2.29-3.22l0-.51.37,0,0,.51c-.11,1.46.35,2.71,1.92,2.83s2.24-1.06,2.34-2.52l.13-1.8c.11-1.43-.35-2.69-1.94-2.81a2,2,0,0,0-2.1,1.3v.13l-.36,0,.77-6.17,4.33.32,0,.36-4-.29Z" style="fill: rgb(38, 50, 56); transform-origin: 323.992px 330.486px;" id="el1hwixhi5xv" class="animable"></path><path d="M333.09,328.16c-.24,3.34-4.88,4.12-5.25,8.25v.07l4.56.33,0,.36-4.93-.36,0-.26c.32-4.49,5-5.18,5.26-8.4.11-1.51-.28-2.77-1.94-2.9s-2.22,1.15-2.32,2.59l-.05.65-.36,0,0-.63c.12-1.66.87-3.05,2.72-2.92S333.22,326.47,333.09,328.16Z" style="fill: rgb(38, 50, 56); transform-origin: 330.289px 331.051px;" id="elo9fswwlf1up" class="animable"></path><path d="M334.81,330.61a2.19,2.19,0,0,1,2.11-.91c1.77.13,2.32,1.55,2.2,3.18l-.13,1.81c-.13,1.67-.91,3-2.73,2.85s-2.42-1.55-2.29-3.22l0-.51.38,0,0,.51c-.1,1.46.35,2.72,1.93,2.83s2.23-1.06,2.34-2.51l.13-1.8c.11-1.44-.35-2.7-1.95-2.82a2,2,0,0,0-2.09,1.3v.13l-.36,0,.76-6.17,4.34.32,0,.36-4-.29Z" style="fill: rgb(38, 50, 56); transform-origin: 336.701px 331.416px;" id="elg7m8pnc2s5a" class="animable"></path><path d="M346.14,249.88c2,.44,2.83,2.09,2.67,4.34l0,.45-1.74-.13,0-.57c.11-1.48-.42-2.44-1.76-2.54s-2,.77-2.09,2.26c-.28,3.75,5.34,4.19,5,8.91-.17,2.25-1.24,3.78-3.3,3.92l-.09,1.27-1.53-.12.09-1.26c-2.06-.44-2.88-2.09-2.71-4.37l.07-1,1.75.13-.08,1.15c-.12,1.51.44,2.42,1.78,2.52s2-.72,2.14-2.23c.28-3.74-5.32-4.19-5-8.91.17-2.3,1.22-3.74,3.25-3.9l.1-1.34,1.53.11Z" style="fill: rgb(38, 50, 56); transform-origin: 344.744px 258.125px;" id="el5r546wewr4c" class="animable"></path><path d="M361.89,255l0,.31-1.75-.13,0-.43c.11-1.51-.45-2.44-1.81-2.54s-2.1.76-2.23,2.56l-.28,3.75a2.71,2.71,0,0,1,2.84-1.59c2.15.16,3,1.78,2.82,4.2l-.19,2.54c-.19,2.56-1.58,4.14-4.14,3.95s-3.73-2-3.54-4.52l.62-8.54c.2-2.66,1.52-4.22,4.17-4S362.08,252.45,361.89,255Zm-6.23,5.85-.18,2.51c-.12,1.51.44,2.46,1.8,2.56s2.06-.76,2.17-2.27l.18-2.51c.11-1.51-.47-2.47-1.81-2.57S355.77,259.35,355.66,260.86Z" style="fill: rgb(38, 50, 56); transform-origin: 357.751px 259.087px;" id="el20snh3dftrji" class="animable"></path><path d="M364.71,265.68l-.17,2.33-1.79-.14.17-2.32Z" style="fill: rgb(38, 50, 56); transform-origin: 363.73px 266.78px;" id="elm007udksq7" class="animable"></path><path d="M370.89,254.68a5,5,0,0,1-2.38.55l.12-1.53a2.87,2.87,0,0,0,3-2l1.29.1-1.23,16.75-1.84-.13Z" style="fill: rgb(38, 50, 56); transform-origin: 370.715px 260.125px;" id="ela70euaup10r" class="animable"></path><path d="M375.34,256c.19-2.56,1.58-4.12,4.14-3.93s3.73,1.93,3.54,4.49l-.63,8.64c-.19,2.56-1.58,4.15-4.17,4s-3.7-2-3.52-4.52Zm1.2,8.9c-.11,1.5.47,2.46,1.81,2.56s2-.77,2.16-2.27l.65-8.86c.11-1.53-.44-2.49-1.81-2.59s-2.05.77-2.16,2.3Z" style="fill: rgb(38, 50, 56); transform-origin: 378.861px 260.632px;" id="el0ezevbkobfdp" class="animable"></path><path d="M280.92,118.18a2.39,2.39,0,0,1-2.1,1.19l0-.34a2.36,2.36,0,0,0,2.15-1.58l.36,0-.88,12-.38,0Z" style="fill: rgb(38, 50, 56); transform-origin: 280.075px 123.45px;" id="ele3a6jnx7u4h" class="animable"></path><path d="M283.07,122.94a2.2,2.2,0,0,1,2.12-.91c1.76.12,2.31,1.54,2.19,3.17l-.13,1.82c-.12,1.66-.91,3-2.72,2.85s-2.42-1.56-2.3-3.22l0-.51.37,0,0,.52c-.11,1.45.35,2.71,1.92,2.83s2.24-1.06,2.34-2.52l.13-1.8c.11-1.44-.35-2.7-1.94-2.81a2,2,0,0,0-2.1,1.29v.14l-.36,0,.77-6.16,4.33.32,0,.36-4-.3Z" style="fill: rgb(38, 50, 56); transform-origin: 284.953px 123.756px;" id="elkdiuek2beg" class="animable"></path><path d="M294.27,118.44l-5.61,11.64-.34,0,5.61-11.65Z" style="fill: rgb(38, 50, 56); transform-origin: 291.295px 124.255px;" id="ela923lyoq95v" class="animable"></path><path d="M295.34,121.48c.13-1.7.94-3,2.78-2.85s2.45,1.53,2.33,3.22L300,128c-.12,1.68-.94,3-2.78,2.85s-2.45-1.54-2.33-3.22Zm-.07,6.13c-.11,1.49.39,2.73,2,2.85s2.26-1,2.37-2.53l.45-6.12c.11-1.48-.38-2.72-2-2.83s-2.26,1-2.37,2.51Z" style="fill: rgb(38, 50, 56); transform-origin: 297.67px 124.74px;" id="ellsju1wdbju9" class="animable"></path><path d="M306.8,122.32l0,.29a2.51,2.51,0,0,1-1.89,2.36,2.28,2.28,0,0,1,1.53,2.52l-.06.93c-.13,1.68-.89,3-2.73,2.85s-2.42-1.54-2.29-3.22l0-.56.37,0,0,.57c-.11,1.47.34,2.73,1.93,2.84s2.23-1,2.34-2.55l.07-.9a2,2,0,0,0-1.83-2.36l-.87-.06,0-.35.89.07a2.15,2.15,0,0,0,2.14-2.14l0-.34c.11-1.49-.35-2.73-1.95-2.85s-2.21,1-2.32,2.52l0,.36-.38,0,0-.34c.13-1.68.91-3,2.74-2.85S306.93,120.64,306.8,122.32Z" style="fill: rgb(38, 50, 56); transform-origin: 304.08px 125.19px;" id="elwny0ra4qyq" class="animable"></path><path d="M313.38,119.84l-5.61,11.65-.34,0L313,119.81Z" style="fill: rgb(38, 50, 56); transform-origin: 310.405px 125.65px;" id="elnhsaocj2y4l" class="animable"></path><path d="M319.46,123.28c-.24,3.34-4.88,4.12-5.25,8.25v.07l4.56.33,0,.36-4.94-.36,0-.26c.33-4.49,5-5.18,5.27-8.4.11-1.51-.28-2.77-1.94-2.9s-2.22,1.15-2.33,2.59l-.05.65-.36,0,0-.63c.12-1.66.88-3,2.73-2.92S319.59,121.59,319.46,123.28Z" style="fill: rgb(38, 50, 56); transform-origin: 316.654px 126.173px;" id="ellt672o6ebd" class="animable"></path><path d="M320.79,123.35c.12-1.7.94-3,2.77-2.85s2.46,1.52,2.33,3.22l-.44,6.1c-.13,1.68-.95,3-2.78,2.85s-2.45-1.55-2.33-3.22Zm-.07,6.12c-.11,1.49.38,2.74,2,2.85s2.26-1,2.37-2.53l.45-6.12c.11-1.47-.39-2.71-2-2.83s-2.27,1-2.37,2.52Z" style="fill: rgb(38, 50, 56); transform-origin: 323.116px 126.585px;" id="elw02yelxs6t" class="animable"></path><path d="M332.25,124.22c-.25,3.34-4.89,4.12-5.26,8.25v.06l4.56.34,0,.36-4.94-.36,0-.26c.33-4.49,5-5.18,5.27-8.4.11-1.51-.28-2.78-1.94-2.9s-2.22,1.15-2.33,2.59l0,.65-.36,0,0-.63c.12-1.66.88-3.06,2.73-2.92S332.37,122.52,332.25,124.22Z" style="fill: rgb(38, 50, 56); transform-origin: 329.438px 127.11px;" id="elrl0yokxlzx" class="animable"></path><path d="M335.89,122.21a2.39,2.39,0,0,1-2.1,1.19l0-.34a2.35,2.35,0,0,0,2.15-1.58l.35,0-.88,12-.37,0Z" style="fill: rgb(38, 50, 56); transform-origin: 335.04px 127.48px;" id="el8ftpxk0e0ti" class="animable"></path><path d="M380.1,127.64l0,.23-.38,0,0-.24c.11-1.42-.34-2.66-1.9-2.78s-2.19,1-2.3,2.45c-.22,3.07,4.38,3.32,4.14,6.58-.12,1.66-.9,2.93-2.74,2.8s-2.4-1.51-2.28-3.17l0-.58.36,0,0,.6c-.11,1.46.37,2.65,1.95,2.77s2.22-1,2.33-2.45c.22-3-4.38-3.27-4.13-6.58.12-1.74,1-2.89,2.68-2.78S380.22,126,380.1,127.64Z" style="fill: rgb(38, 50, 56); transform-origin: 377.369px 130.586px;" id="el49qep30ijxc" class="animable"></path><path d="M382,134.09l-.91,2.77-.34,0,3.78-11.8.53,0,2.08,12.23-.37,0-.5-2.88Zm.1-.34,4.13.3-1.48-8.55Z" style="fill: rgb(38, 50, 56); transform-origin: 383.945px 131.175px;" id="elc8uuwl00uh" class="animable"></path><path d="M390,137.52l.85-11.63-2.6-.19,0-.36,5.61.41,0,.36-2.62-.2-.86,11.64Z" style="fill: rgb(38, 50, 56); transform-origin: 391.055px 131.445px;" id="eln8p27g6lde" class="animable"></path><g id="elv7v783qabwt"><rect x="211.65" y="281.1" width="4" height="30" style="fill: rgb(38, 50, 56); transform-origin: 213.65px 296.1px; transform: rotate(4.2deg);" class="animable" id="eld4ku1k8e0rc"></rect></g><g id="elgzcx8ojbjl7"><rect x="222.05" y="281.87" width="4" height="30" style="fill: rgb(38, 50, 56); transform-origin: 224.05px 296.87px; transform: rotate(4.2deg);" class="animable" id="eljl5ctmteom"></rect></g><g id="elpvcrsvwo7t"><rect x="217.44" y="281.45" width="1.99" height="30" style="fill: rgb(38, 50, 56); transform-origin: 218.435px 296.45px; transform: rotate(4.2deg);" class="animable" id="eltrpey3wkjjb"></rect></g><g id="elmsyp40ak1le"><rect x="228.46" y="282.34" width="4" height="30" style="fill: rgb(38, 50, 56); transform-origin: 230.46px 297.34px; transform: rotate(4.2deg);" class="animable" id="els2q34npmkd9"></rect></g><g id="elpifs8e4vdp"><rect x="237.27" y="282.86" width="0.79" height="30" style="fill: rgb(38, 50, 56); transform-origin: 237.665px 297.86px; transform: rotate(4.19deg);" class="animable" id="elmfwv23cyl5c"></rect></g><g id="elt6a6zwyxls"><rect x="234.26" y="282.69" width="1.99" height="30" style="fill: rgb(38, 50, 56); transform-origin: 235.255px 297.69px; transform: rotate(4.2deg);" class="animable" id="el2kirp6a8n0x"></rect></g><g id="elmr08xqv544a"><rect x="240.24" y="283.2" width="4" height="30" style="fill: rgb(38, 50, 56); transform-origin: 242.24px 298.2px; transform: rotate(4.2deg);" class="animable" id="elcte5ssfb5i"></rect></g><g id="elj678o0ezkrh"><rect x="250.64" y="283.96" width="4" height="30" style="fill: rgb(38, 50, 56); transform-origin: 252.64px 298.96px; transform: rotate(4.2deg);" class="animable" id="el324gfyqa8ms"></rect></g><g id="el9unop88f8jb"><rect x="246.03" y="283.55" width="1.99" height="30" style="fill: rgb(38, 50, 56); transform-origin: 247.025px 298.55px; transform: rotate(4.2deg);" class="animable" id="el6nqxitpzn8d"></rect></g><g id="elmssm2aperzi"><rect x="257.05" y="284.43" width="4" height="30" style="fill: rgb(38, 50, 56); transform-origin: 259.05px 299.43px; transform: rotate(4.2deg);" class="animable" id="el0k9dgpgz6ycf"></rect></g><g id="eldeqr6owy0gb"><rect x="265.86" y="284.96" width="0.79" height="30" style="fill: rgb(38, 50, 56); transform-origin: 266.255px 299.96px; transform: rotate(4.2deg);" class="animable" id="elffmhfdur8k"></rect></g><g id="elrjbsat9ks7a"><rect x="262.85" y="284.79" width="1.99" height="30" style="fill: rgb(38, 50, 56); transform-origin: 263.845px 299.79px; transform: rotate(4.2deg);" class="animable" id="el4v36l9dk4bg"></rect></g><g id="elg8e3t568xzr"><rect x="268.83" y="285.3" width="4" height="30" style="fill: rgb(38, 50, 56); transform-origin: 270.83px 300.3px; transform: rotate(4.19deg);" class="animable" id="elk5f1bakvaq"></rect></g><g id="elzsefcq3ffv"><rect x="279.23" y="286.06" width="4" height="30" style="fill: rgb(38, 50, 56); transform-origin: 281.23px 301.06px; transform: rotate(4.19deg);" class="animable" id="elu8qxjsrpqvl"></rect></g><g id="elmwwvmx1euhf"><rect x="274.62" y="285.65" width="1.99" height="30" style="fill: rgb(38, 50, 56); transform-origin: 275.615px 300.65px; transform: rotate(4.19deg);" class="animable" id="elg4bs4463ki"></rect></g><g id="elr13oqf3uab"><rect x="285.64" y="286.53" width="4" height="30" style="fill: rgb(38, 50, 56); transform-origin: 287.64px 301.53px; transform: rotate(4.19deg);" class="animable" id="el08nwsjl9wfsx"></rect></g><g id="el3m28etqpiou"><rect x="294.45" y="287.06" width="0.79" height="30" style="fill: rgb(38, 50, 56); transform-origin: 294.845px 302.06px; transform: rotate(4.19deg);" class="animable" id="elx2ug0fcn69j"></rect></g><g id="eltu7tfa1zyeb"><rect x="291.44" y="286.88" width="1.99" height="30" style="fill: rgb(38, 50, 56); transform-origin: 292.435px 301.88px; transform: rotate(4.00417deg);" class="animable" id="elmrg09iln92"></rect></g><g id="elqv44jqpads"><rect x="297.42" y="287.4" width="4" height="30" style="fill: rgb(38, 50, 56); transform-origin: 299.42px 302.4px; transform: rotate(4.2deg);" class="animable" id="el0kc9zt5gsksl"></rect></g><g id="elr4nxr40vb4"><rect x="307.82" y="288.16" width="4" height="30" style="fill: rgb(38, 50, 56); transform-origin: 309.82px 303.16px; transform: rotate(4.2deg);" class="animable" id="eldgdo86p6fvs"></rect></g><g id="el0ij3s7zvgx9k"><rect x="303.21" y="287.75" width="1.99" height="30" style="fill: rgb(38, 50, 56); transform-origin: 304.205px 302.75px; transform: rotate(4.2deg);" class="animable" id="elupxyafr3p"></rect></g><g id="elov8jhfa89zk"><rect x="314.23" y="288.63" width="4" height="30" style="fill: rgb(38, 50, 56); transform-origin: 316.23px 303.63px; transform: rotate(4.2deg);" class="animable" id="eltimlc6z2phg"></rect></g><g id="eljfa201mqxf"><rect x="323.04" y="289.16" width="0.79" height="30" style="fill: rgb(38, 50, 56); transform-origin: 323.435px 304.16px; transform: rotate(4.2deg);" class="animable" id="elmcysa3se7kp"></rect></g><g id="elniroo3qgkmn"><rect x="320.03" y="288.98" width="1.99" height="30" style="fill: rgb(38, 50, 56); transform-origin: 321.025px 303.98px; transform: rotate(4.2deg);" class="animable" id="elyi7u52u1tf"></rect></g><g id="el7rh04smyejp"><rect x="326.01" y="289.49" width="4" height="30" style="fill: rgb(38, 50, 56); transform-origin: 328.01px 304.49px; transform: rotate(4.19deg);" class="animable" id="el5t74n5l1c8l"></rect></g><g id="ely8hr1pkegej"><rect x="336.41" y="290.26" width="4" height="30" style="fill: rgb(38, 50, 56); transform-origin: 338.41px 305.26px; transform: rotate(4.2deg);" class="animable" id="elk2q3w51jy2c"></rect></g><g id="el38bq01eyeyi"><rect x="331.8" y="289.84" width="1.99" height="30" style="fill: rgb(38, 50, 56); transform-origin: 332.795px 304.84px; transform: rotate(4.2deg);" class="animable" id="elix29jz485u"></rect></g><g id="el5li13aadkvb"><rect x="342.82" y="290.73" width="4" height="30" style="fill: rgb(38, 50, 56); transform-origin: 344.82px 305.73px; transform: rotate(4.2deg);" class="animable" id="el8jqc9ei59e8"></rect></g><g id="el7fmcsks1hf8"><rect x="351.63" y="291.25" width="0.79" height="30" style="fill: rgb(38, 50, 56); transform-origin: 352.025px 306.25px; transform: rotate(4.19deg);" class="animable" id="elbcb88345jdh"></rect></g><g id="elkpcpej628j"><rect x="348.62" y="291.08" width="1.99" height="30" style="fill: rgb(38, 50, 56); transform-origin: 349.615px 306.08px; transform: rotate(4.2deg);" class="animable" id="elxiq3lt9zz0r"></rect></g><g id="elg298f5ngr"><rect x="354.6" y="291.59" width="4" height="30" style="fill: rgb(38, 50, 56); transform-origin: 356.6px 306.59px; transform: rotate(4.2deg);" class="animable" id="elfd7esvkrh3"></rect></g><g id="elenos1lah3f"><rect x="365" y="292.35" width="4" height="30" style="fill: rgb(38, 50, 56); transform-origin: 367px 307.35px; transform: rotate(4.2deg);" class="animable" id="eln2nrmon8y8"></rect></g><g id="elq0qadetvjh"><rect x="360.39" y="291.94" width="1.99" height="30" style="fill: rgb(38, 50, 56); transform-origin: 361.385px 306.94px; transform: rotate(4.2deg);" class="animable" id="el3p5u7mmsjyh"></rect></g><g id="elxs31t7jdklh"><rect x="371.41" y="292.82" width="4" height="30" style="fill: rgb(38, 50, 56); transform-origin: 373.41px 307.82px; transform: rotate(4.2deg);" class="animable" id="elzjb08zrg1xs"></rect></g><g id="elyljwlxw39as"><rect x="380.22" y="293.35" width="0.79" height="30" style="fill: rgb(38, 50, 56); transform-origin: 380.615px 308.35px; transform: rotate(4.2deg);" class="animable" id="el0iuqql3gasw"></rect></g><g id="el3yhrpgpo5d4"><rect x="377.21" y="293.18" width="1.99" height="30" style="fill: rgb(38, 50, 56); transform-origin: 378.205px 308.18px; transform: rotate(4.19deg);" class="animable" id="elagclv324kqe"></rect></g></g><g id="freepik--Plant--inject-124" class="animable" style="transform-origin: 446.635px 363.779px;"><line x1="427.25" y1="297.66" x2="441.44" y2="433.63" style="fill: none; stroke: rgb(38, 50, 56); stroke-miterlimit: 10; stroke-width: 2px; transform-origin: 434.345px 365.645px;" id="eled1uhxett5" class="animable"></line><line x1="439.15" y1="407.61" x2="432.72" y2="400.81" style="fill: none; stroke: rgb(38, 50, 56); stroke-miterlimit: 10; stroke-width: 2px; transform-origin: 435.935px 404.21px;" id="el5sw4lxcw1b" class="animable"></line><path d="M434.67,402.85a7.26,7.26,0,0,0-2.56-5.46c-1.65-1.47-10.34-5.13-11.16-2.07C420.05,398.65,429,405.19,434.67,402.85Z" style="fill: #4400BA; stroke: rgb(38, 50, 56); stroke-miterlimit: 10; transform-origin: 427.779px 398.74px;" id="el4xeytgku2md" class="animable"></path><line x1="434.67" y1="402.85" x2="426.4" y2="397.69" style="fill: none; stroke: rgb(38, 50, 56); stroke-miterlimit: 10; stroke-width: 0.5px; transform-origin: 430.535px 400.27px;" id="elgu868k1bki5" class="animable"></line><line x1="440.77" y1="423.07" x2="434.33" y2="416.27" style="fill: none; stroke: rgb(38, 50, 56); stroke-miterlimit: 10; stroke-width: 2px; transform-origin: 437.55px 419.67px;" id="elaa73y8vnx2" class="animable"></line><path d="M436.29,418.31a7.31,7.31,0,0,0-2.56-5.46c-1.65-1.47-10.34-5.13-11.17-2.07C421.67,414.11,430.56,420.65,436.29,418.31Z" style="fill: #4400BA; stroke: rgb(38, 50, 56); stroke-miterlimit: 10; transform-origin: 429.394px 414.2px;" id="eldxk8tk25n9i" class="animable"></path><line x1="436.29" y1="418.31" x2="428.02" y2="413.15" style="fill: none; stroke: rgb(38, 50, 56); stroke-miterlimit: 10; stroke-width: 0.5px; transform-origin: 432.155px 415.73px;" id="el69eyaufrmk9" class="animable"></line><line x1="435.21" y1="369.87" x2="428.78" y2="363.08" style="fill: none; stroke: rgb(38, 50, 56); stroke-miterlimit: 10; stroke-width: 2px; transform-origin: 431.995px 366.475px;" id="elsgnthc883tn" class="animable"></line><path d="M430.74,365.11a7.29,7.29,0,0,0-2.56-5.45c-1.65-1.48-10.34-5.13-11.17-2.07C416.11,360.92,425,367.45,430.74,365.11Z" style="fill: #4400BA; stroke: rgb(38, 50, 56); stroke-miterlimit: 10; transform-origin: 423.843px 361.004px;" id="elezgdn9oyie" class="animable"></path><line x1="430.74" y1="365.11" x2="422.46" y2="359.96" style="fill: none; stroke: rgb(38, 50, 56); stroke-miterlimit: 10; stroke-width: 0.5px; transform-origin: 426.6px 362.535px;" id="elwy7jhoza70c" class="animable"></line><line x1="436.83" y1="385.34" x2="430.4" y2="378.54" style="fill: none; stroke: rgb(38, 50, 56); stroke-miterlimit: 10; stroke-width: 2px; transform-origin: 433.615px 381.94px;" id="elbih4n22hvb" class="animable"></line><path d="M432.35,380.58a7.31,7.31,0,0,0-2.56-5.46c-1.65-1.47-10.34-5.13-11.17-2.07C417.73,376.38,426.62,382.92,432.35,380.58Z" style="fill: #4400BA; stroke: rgb(38, 50, 56); stroke-miterlimit: 10; transform-origin: 425.454px 376.47px;" id="eli22av3djl9l" class="animable"></path><line x1="432.35" y1="380.58" x2="424.08" y2="375.42" style="fill: none; stroke: rgb(38, 50, 56); stroke-miterlimit: 10; stroke-width: 0.5px; transform-origin: 428.215px 378px;" id="elywgvuk5i5x8" class="animable"></line><line x1="432.59" y1="344.75" x2="426.16" y2="337.96" style="fill: none; stroke: rgb(38, 50, 56); stroke-miterlimit: 10; stroke-width: 2px; transform-origin: 429.375px 341.355px;" id="elyecp1mluyb9" class="animable"></line><path d="M428.12,340a7.28,7.28,0,0,0-2.57-5.45c-1.65-1.48-10.34-5.13-11.16-2.07C413.49,335.8,422.39,342.33,428.12,340Z" style="fill: #4400BA; stroke: rgb(38, 50, 56); stroke-miterlimit: 10; transform-origin: 421.223px 335.892px;" id="elxeg8ms5axan" class="animable"></path><line x1="428.12" y1="339.99" x2="419.84" y2="334.84" style="fill: none; stroke: rgb(38, 50, 56); stroke-miterlimit: 10; stroke-width: 0.5px; transform-origin: 423.98px 337.415px;" id="ellpbj6i7xsn" class="animable"></line><line x1="429.96" y1="319.52" x2="423.53" y2="312.73" style="fill: none; stroke: rgb(38, 50, 56); stroke-miterlimit: 10; stroke-width: 2px; transform-origin: 426.745px 316.125px;" id="elrfgnjkakrs" class="animable"></line><path d="M425.48,314.77a7.26,7.26,0,0,0-2.56-5.46c-1.65-1.48-10.34-5.13-11.16-2.07C410.86,310.57,419.75,317.11,425.48,314.77Z" style="fill: #4400BA; stroke: rgb(38, 50, 56); stroke-miterlimit: 10; transform-origin: 418.588px 310.659px;" id="elabcotuddpo6" class="animable"></path><line x1="425.48" y1="314.77" x2="417.21" y2="309.61" style="fill: none; stroke: rgb(38, 50, 56); stroke-miterlimit: 10; stroke-width: 0.5px; transform-origin: 421.345px 312.19px;" id="elnlvtqh1kyhg" class="animable"></line><line x1="438.07" y1="398.46" x2="442.96" y2="390.48" style="fill: none; stroke: rgb(38, 50, 56); stroke-miterlimit: 10; stroke-width: 2px; transform-origin: 440.515px 394.47px;" id="el92ikm3vx2q" class="animable"></line><path d="M441.47,392.88a7.29,7.29,0,0,1,1.38-5.87c1.31-1.79,9.06-7.16,10.5-4.33C454.91,385.75,447.56,394,441.47,392.88Z" style="fill: #4400BA; stroke: rgb(38, 50, 56); stroke-miterlimit: 10; transform-origin: 447.447px 387.428px;" id="el0kua1i3jj71j" class="animable"></path><line x1="441.47" y1="392.88" x2="448.92" y2="385.76" style="fill: none; stroke: rgb(38, 50, 56); stroke-miterlimit: 10; stroke-width: 0.5px; transform-origin: 445.195px 389.32px;" id="elu29o3h406e" class="animable"></line><line x1="433.82" y1="357.76" x2="438.72" y2="349.79" style="fill: none; stroke: rgb(38, 50, 56); stroke-miterlimit: 10; stroke-width: 2px; transform-origin: 436.27px 353.775px;" id="el5vvbafqnf0c" class="animable"></line><path d="M437.22,352.18a7.27,7.27,0,0,1,1.38-5.86c1.31-1.79,9.06-7.16,10.5-4.33C450.67,345.06,443.31,353.29,437.22,352.18Z" style="fill: #4400BA; stroke: rgb(38, 50, 56); stroke-miterlimit: 10; transform-origin: 443.198px 346.732px;" id="elgnbnr8y8qtr" class="animable"></path><line x1="437.22" y1="352.18" x2="444.67" y2="345.06" style="fill: none; stroke: rgb(38, 50, 56); stroke-miterlimit: 10; stroke-width: 0.5px; transform-origin: 440.945px 348.62px;" id="eli9z75pa971" class="animable"></line><line x1="431.96" y1="339.88" x2="436.85" y2="331.91" style="fill: none; stroke: rgb(38, 50, 56); stroke-miterlimit: 10; stroke-width: 2px; transform-origin: 434.405px 335.895px;" id="elil5c047uqiq" class="animable"></line><path d="M435.36,334.3a7.29,7.29,0,0,1,1.38-5.87c1.31-1.78,9.06-7.15,10.49-4.33C448.8,327.17,441.45,335.41,435.36,334.3Z" style="fill: #4400BA; stroke: rgb(38, 50, 56); stroke-miterlimit: 10; transform-origin: 441.333px 328.849px;" id="elzj31gvtm7dh" class="animable"></path><line x1="435.36" y1="334.3" x2="442.81" y2="327.18" style="fill: none; stroke: rgb(38, 50, 56); stroke-miterlimit: 10; stroke-width: 0.5px; transform-origin: 439.085px 330.74px;" id="elyz8bcqlmulq" class="animable"></line><line x1="429.22" y1="313.67" x2="434.11" y2="305.69" style="fill: none; stroke: rgb(38, 50, 56); stroke-miterlimit: 10; stroke-width: 2px; transform-origin: 431.665px 309.68px;" id="el0rwj6srqspoc" class="animable"></line><path d="M432.62,308.09a7.29,7.29,0,0,1,1.38-5.87c1.31-1.79,9.06-7.16,10.5-4.33C446.06,301,438.71,309.19,432.62,308.09Z" style="fill: #4400BA; stroke: rgb(38, 50, 56); stroke-miterlimit: 10; transform-origin: 438.597px 302.636px;" id="eldf55cmh3str" class="animable"></path><line x1="432.62" y1="308.09" x2="440.07" y2="300.97" style="fill: none; stroke: rgb(38, 50, 56); stroke-miterlimit: 10; stroke-width: 0.5px; transform-origin: 436.345px 304.53px;" id="ely7ujk6bt89o" class="animable"></line><path d="M427.13,296.9a7.27,7.27,0,0,1,1.38-5.86c1.31-1.79,9.06-7.16,10.5-4.33C440.57,289.78,433.22,298,427.13,296.9Z" style="fill: #4400BA; stroke: rgb(38, 50, 56); stroke-miterlimit: 10; transform-origin: 433.107px 291.451px;" id="el33xicvtipka" class="animable"></path><line x1="427.13" y1="296.9" x2="434.58" y2="289.78" style="fill: none; stroke: rgb(38, 50, 56); stroke-miterlimit: 10; stroke-width: 0.5px; transform-origin: 430.855px 293.34px;" id="eln6ftz4doomd" class="animable"></line><path d="M427.56,297.21a7.3,7.3,0,0,1-5.69-2c-1.63-1.5-6.16-9.76-3.2-10.9C421.88,283.1,429.3,291.27,427.56,297.21Z" style="fill: #4400BA; stroke: rgb(38, 50, 56); stroke-miterlimit: 10; transform-origin: 422.755px 290.714px;" id="ell3bbxxlbco" class="animable"></path><line x1="427.56" y1="297.21" x2="421.26" y2="289.06" style="fill: none; stroke: rgb(38, 50, 56); stroke-miterlimit: 10; stroke-width: 0.5px; transform-origin: 424.41px 293.135px;" id="elrtba8mkhrjo" class="animable"></line><line x1="464.68" y1="316.38" x2="450.57" y2="452.36" style="fill: none; stroke: rgb(38, 50, 56); stroke-miterlimit: 10; stroke-width: 2px; transform-origin: 457.625px 384.37px;" id="eljmypczquhq" class="animable"></line><line x1="453.69" y1="426.42" x2="448.79" y2="418.45" style="fill: none; stroke: rgb(38, 50, 56); stroke-miterlimit: 10; stroke-width: 2px; transform-origin: 451.24px 422.435px;" id="elqdzn0p30pyq" class="animable"></line><path d="M450.28,420.85A7.29,7.29,0,0,0,448.9,415c-1.31-1.78-9.06-7.15-10.5-4.33C436.84,413.73,444.2,422,450.28,420.85Z" style="fill: #4400BA; stroke: rgb(38, 50, 56); stroke-miterlimit: 10; transform-origin: 444.302px 415.413px;" id="elrpqs0shmxd" class="animable"></path><line x1="450.28" y1="420.85" x2="443.25" y2="414.1" style="fill: none; stroke: rgb(38, 50, 56); stroke-miterlimit: 10; stroke-width: 0.5px; transform-origin: 446.765px 417.475px;" id="elj3ecl23uju" class="animable"></line><line x1="457.6" y1="388.69" x2="452.71" y2="380.72" style="fill: none; stroke: rgb(38, 50, 56); stroke-miterlimit: 10; stroke-width: 2px; transform-origin: 455.155px 384.705px;" id="ela5a3qzmc1gb" class="animable"></line><path d="M454.2,383.11a7.29,7.29,0,0,0-1.38-5.87c-1.32-1.78-9.07-7.15-10.5-4.32C440.75,376,448.11,384.22,454.2,383.11Z" style="fill: #4400BA; stroke: rgb(38, 50, 56); stroke-miterlimit: 10; transform-origin: 448.222px 377.662px;" id="eluay9hspdrxg" class="animable"></path><line x1="454.2" y1="383.11" x2="447.16" y2="376.36" style="fill: none; stroke: rgb(38, 50, 56); stroke-miterlimit: 10; stroke-width: 0.5px; transform-origin: 450.68px 379.735px;" id="el3ozyb8b7hw8" class="animable"></line><line x1="456" y1="404.15" x2="451.1" y2="396.18" style="fill: none; stroke: rgb(38, 50, 56); stroke-miterlimit: 10; stroke-width: 2px; transform-origin: 453.55px 400.165px;" id="el8oh1qm8ld8c" class="animable"></line><path d="M452.59,398.57a7.27,7.27,0,0,0-1.38-5.86c-1.31-1.78-9.06-7.15-10.5-4.33C439.15,391.46,446.51,399.68,452.59,398.57Z" style="fill: #4400BA; stroke: rgb(38, 50, 56); stroke-miterlimit: 10; transform-origin: 446.613px 393.124px;" id="eli7qruknf3e" class="animable"></path><line x1="452.59" y1="398.57" x2="445.56" y2="391.83" style="fill: none; stroke: rgb(38, 50, 56); stroke-miterlimit: 10; stroke-width: 0.5px; transform-origin: 449.075px 395.2px;" id="elyouljcujvt" class="animable"></line><line x1="460.21" y1="363.57" x2="455.31" y2="355.6" style="fill: none; stroke: rgb(38, 50, 56); stroke-miterlimit: 10; stroke-width: 2px; transform-origin: 457.76px 359.585px;" id="elvjslqoxykg" class="animable"></line><path d="M456.81,358a7.32,7.32,0,0,0-1.39-5.87c-1.31-1.78-9.06-7.15-10.5-4.32C443.36,350.87,450.72,359.1,456.81,358Z" style="fill: #4400BA; stroke: rgb(38, 50, 56); stroke-miterlimit: 10; transform-origin: 450.826px 352.551px;" id="el4cxnloryd3m" class="animable"></path><line x1="456.81" y1="357.99" x2="449.77" y2="351.24" style="fill: none; stroke: rgb(38, 50, 56); stroke-miterlimit: 10; stroke-width: 0.5px; transform-origin: 453.29px 354.615px;" id="eljcyj9anh3u" class="animable"></line><line x1="462.83" y1="338.34" x2="457.93" y2="330.37" style="fill: none; stroke: rgb(38, 50, 56); stroke-miterlimit: 10; stroke-width: 2px; transform-origin: 460.38px 334.355px;" id="elm5qyi0oygzl" class="animable"></line><path d="M459.42,332.76a7.29,7.29,0,0,0-1.38-5.87c-1.31-1.78-9.06-7.15-10.5-4.32C446,325.64,453.34,333.87,459.42,332.76Z" style="fill: #4400BA; stroke: rgb(38, 50, 56); stroke-miterlimit: 10; transform-origin: 453.446px 327.312px;" id="el519x7weclls" class="animable"></path><line x1="459.42" y1="332.76" x2="452.39" y2="326.01" style="fill: none; stroke: rgb(38, 50, 56); stroke-miterlimit: 10; stroke-width: 0.5px; transform-origin: 455.905px 329.385px;" id="elo3qlm59ztq" class="animable"></line><line x1="454.51" y1="417.25" x2="460.94" y2="410.45" style="fill: none; stroke: rgb(38, 50, 56); stroke-miterlimit: 10; stroke-width: 2px; transform-origin: 457.725px 413.85px;" id="els17pgjb4qs" class="animable"></line><path d="M459,412.49a7.27,7.27,0,0,1,2.55-5.46c1.65-1.48,10.34-5.14,11.17-2.08C473.61,408.28,464.72,414.82,459,412.49Z" style="fill: #4400BA; stroke: rgb(38, 50, 56); stroke-miterlimit: 10; transform-origin: 465.891px 408.373px;" id="elssqrk9uhzjg" class="animable"></path><line x1="458.99" y1="412.49" x2="467.74" y2="407.05" style="fill: none; stroke: rgb(38, 50, 56); stroke-miterlimit: 10; stroke-width: 0.5px; transform-origin: 463.365px 409.77px;" id="el3dfzjggqvrc" class="animable"></line><line x1="458.73" y1="376.55" x2="465.16" y2="369.76" style="fill: none; stroke: rgb(38, 50, 56); stroke-miterlimit: 10; stroke-width: 2px; transform-origin: 461.945px 373.155px;" id="elcno561bez2e" class="animable"></line><path d="M463.21,371.79a7.25,7.25,0,0,1,2.56-5.45c1.65-1.48,10.33-5.14,11.16-2.08C477.83,367.59,468.94,374.13,463.21,371.79Z" style="fill: #4400BA; stroke: rgb(38, 50, 56); stroke-miterlimit: 10; transform-origin: 470.102px 367.68px;" id="eluoc5k65dbj" class="animable"></path><line x1="463.21" y1="371.79" x2="471.97" y2="366.36" style="fill: none; stroke: rgb(38, 50, 56); stroke-miterlimit: 10; stroke-width: 0.5px; transform-origin: 467.59px 369.075px;" id="elkcmsbn2dq5" class="animable"></line><line x1="460.59" y1="358.67" x2="467.02" y2="351.87" style="fill: none; stroke: rgb(38, 50, 56); stroke-miterlimit: 10; stroke-width: 2px; transform-origin: 463.805px 355.27px;" id="el43wfgj8vuto" class="animable"></line><path d="M465.07,353.91a7.27,7.27,0,0,1,2.55-5.46c1.65-1.47,10.34-5.13,11.17-2.07C479.69,349.7,470.8,356.25,465.07,353.91Z" style="fill: #4400BA; stroke: rgb(38, 50, 56); stroke-miterlimit: 10; transform-origin: 471.962px 349.799px;" id="elh5u9piowsec" class="animable"></path><line x1="465.07" y1="353.91" x2="473.82" y2="348.48" style="fill: none; stroke: rgb(38, 50, 56); stroke-miterlimit: 10; stroke-width: 0.5px; transform-origin: 469.445px 351.195px;" id="el5xor7ophhjs" class="animable"></line><line x1="463.31" y1="332.45" x2="469.74" y2="325.66" style="fill: none; stroke: rgb(38, 50, 56); stroke-miterlimit: 10; stroke-width: 2px; transform-origin: 466.525px 329.055px;" id="eltfqvyobynxq" class="animable"></line><path d="M467.79,327.69a7.26,7.26,0,0,1,2.55-5.45c1.65-1.48,10.34-5.14,11.17-2.08C482.41,323.49,473.52,330,467.79,327.69Z" style="fill: #4400BA; stroke: rgb(38, 50, 56); stroke-miterlimit: 10; transform-origin: 474.682px 323.575px;" id="elnb11pfyieh" class="animable"></path><line x1="467.79" y1="327.69" x2="476.54" y2="322.26" style="fill: none; stroke: rgb(38, 50, 56); stroke-miterlimit: 10; stroke-width: 0.5px; transform-origin: 472.165px 324.975px;" id="elr89cm57rxx" class="animable"></line><path d="M464.71,315.62a7.32,7.32,0,0,1,2.56-5.46c1.65-1.47,10.34-5.13,11.17-2.07C479.33,311.41,470.44,318,464.71,315.62Z" style="fill: #4400BA; stroke: rgb(38, 50, 56); stroke-miterlimit: 10; transform-origin: 471.606px 311.516px;" id="el3ytrv9961xd" class="animable"></path><line x1="464.71" y1="315.62" x2="473.47" y2="310.19" style="fill: none; stroke: rgb(38, 50, 56); stroke-miterlimit: 10; stroke-width: 0.5px; transform-origin: 469.09px 312.905px;" id="el2prp2nojab9" class="animable"></line><path d="M465.07,316a7.3,7.3,0,0,1-5.16-3.11c-1.29-1.8-4-10.82-.89-11.33C462.42,301,468,310.56,465.07,316Z" style="fill: #4400BA; stroke: rgb(38, 50, 56); stroke-miterlimit: 10; transform-origin: 461.737px 308.768px;" id="elx2wryrwrj2" class="animable"></path><line x1="465.07" y1="316.01" x2="460.59" y2="306.73" style="fill: none; stroke: rgb(38, 50, 56); stroke-miterlimit: 10; stroke-width: 0.5px; transform-origin: 462.83px 311.37px;" id="elmf6o5zczu1" class="animable"></line><line x1="448.51" y1="261.02" x2="448.51" y2="432.96" style="fill: none; stroke: rgb(38, 50, 56); stroke-miterlimit: 10; stroke-width: 2px; transform-origin: 448.51px 346.99px;" id="elgup818jx8un" class="animable"></line><line x1="448.64" y1="407.11" x2="442.95" y2="399.68" style="fill: none; stroke: rgb(38, 50, 56); stroke-miterlimit: 10; stroke-width: 2px; transform-origin: 445.795px 403.395px;" id="eluuzhee2xlx" class="animable"></line><path d="M444.68,401.91a7.25,7.25,0,0,0-2-5.69c-1.49-1.64-9.75-6.18-10.89-3.22C430.58,396.22,438.74,403.64,444.68,401.91Z" style="fill: #4400BA; stroke: rgb(38, 50, 56); stroke-miterlimit: 10; transform-origin: 438.19px 397.094px;" id="elt6mnetx6x1h" class="animable"></path><line x1="444.68" y1="401.91" x2="436.99" y2="395.93" style="fill: none; stroke: rgb(38, 50, 56); stroke-miterlimit: 10; stroke-width: 0.5px; transform-origin: 440.835px 398.92px;" id="el8rsl8l7p89x" class="animable"></line><line x1="448.64" y1="374.8" x2="442.95" y2="367.37" style="fill: none; stroke: rgb(38, 50, 56); stroke-miterlimit: 10; stroke-width: 2px; transform-origin: 445.795px 371.085px;" id="el7f8ikxbxppw" class="animable"></line><path d="M444.68,369.6a7.25,7.25,0,0,0-2-5.69c-1.49-1.64-9.75-6.18-10.89-3.22C430.58,363.91,438.74,371.33,444.68,369.6Z" style="fill: #4400BA; stroke: rgb(38, 50, 56); stroke-miterlimit: 10; transform-origin: 438.19px 364.784px;" id="elcz28zidt4o8" class="animable"></path><line x1="444.68" y1="369.6" x2="436.99" y2="363.61" style="fill: none; stroke: rgb(38, 50, 56); stroke-miterlimit: 10; stroke-width: 0.5px; transform-origin: 440.835px 366.605px;" id="elykolsd2ghs" class="animable"></line><line x1="448.64" y1="336.86" x2="442.95" y2="329.43" style="fill: none; stroke: rgb(38, 50, 56); stroke-miterlimit: 10; stroke-width: 2px; transform-origin: 445.795px 333.145px;" id="elywzb4x95lvd" class="animable"></line><path d="M444.68,331.66a7.25,7.25,0,0,0-2-5.69c-1.49-1.64-9.75-6.18-10.89-3.22C430.58,326,438.74,333.39,444.68,331.66Z" style="fill: #4400BA; stroke: rgb(38, 50, 56); stroke-miterlimit: 10; transform-origin: 438.19px 326.845px;" id="elt0oddxjshy" class="animable"></path><line x1="444.68" y1="331.66" x2="436.99" y2="325.67" style="fill: none; stroke: rgb(38, 50, 56); stroke-miterlimit: 10; stroke-width: 0.5px; transform-origin: 440.835px 328.665px;" id="el75arpdxv5sa" class="animable"></line><line x1="448.64" y1="311.6" x2="442.95" y2="304.18" style="fill: none; stroke: rgb(38, 50, 56); stroke-miterlimit: 10; stroke-width: 2px; transform-origin: 445.795px 307.89px;" id="elkd4wj3qrcp" class="animable"></line><path d="M444.68,306.41a7.27,7.27,0,0,0-2-5.7c-1.49-1.64-9.75-6.17-10.89-3.22C430.58,300.71,438.74,308.14,444.68,306.41Z" style="fill: #4400BA; stroke: rgb(38, 50, 56); stroke-miterlimit: 10; transform-origin: 438.19px 301.591px;" id="elcsg3n5qj7q" class="animable"></path><line x1="444.68" y1="306.41" x2="436.99" y2="300.42" style="fill: none; stroke: rgb(38, 50, 56); stroke-miterlimit: 10; stroke-width: 0.5px; transform-origin: 440.835px 303.415px;" id="el3uy4gu0nnh5" class="animable"></line><line x1="448.64" y1="286.24" x2="442.95" y2="278.81" style="fill: none; stroke: rgb(38, 50, 56); stroke-miterlimit: 10; stroke-width: 2px; transform-origin: 445.795px 282.525px;" id="elqmqzmnhtilo" class="animable"></line><path d="M444.68,281a7.25,7.25,0,0,0-2-5.69c-1.49-1.64-9.75-6.18-10.89-3.22C430.58,275.35,438.74,282.77,444.68,281Z" style="fill: #4400BA; stroke: rgb(38, 50, 56); stroke-miterlimit: 10; transform-origin: 438.19px 276.19px;" id="elk2hnilb0fwf" class="animable"></path><line x1="444.68" y1="281.04" x2="436.99" y2="275.05" style="fill: none; stroke: rgb(38, 50, 56); stroke-miterlimit: 10; stroke-width: 0.5px; transform-origin: 440.835px 278.045px;" id="el2gwrzmqbp5v" class="animable"></line><line x1="448.52" y1="416.98" x2="454.21" y2="409.55" style="fill: none; stroke: rgb(38, 50, 56); stroke-miterlimit: 10; stroke-width: 2px; transform-origin: 451.365px 413.265px;" id="elrjh1jckw2c" class="animable"></line><path d="M452.48,411.78a7.25,7.25,0,0,1,2-5.69c1.49-1.64,9.75-6.18,10.89-3.22C466.59,406.09,458.42,413.51,452.48,411.78Z" style="fill: #4400BA; stroke: rgb(38, 50, 56); stroke-miterlimit: 10; transform-origin: 458.971px 406.964px;" id="el8whqgi1gt29" class="animable"></path><line x1="452.48" y1="411.78" x2="460.63" y2="405.47" style="fill: none; stroke: rgb(38, 50, 56); stroke-miterlimit: 10; stroke-width: 0.5px; transform-origin: 456.555px 408.625px;" id="el7fh4bzogvtu" class="animable"></line><line x1="448.52" y1="365.58" x2="454.21" y2="358.16" style="fill: none; stroke: rgb(38, 50, 56); stroke-miterlimit: 10; stroke-width: 2px; transform-origin: 451.365px 361.87px;" id="el2n7s7788ajl" class="animable"></line><path d="M452.48,360.39a7.28,7.28,0,0,1,2-5.7c1.49-1.63,9.75-6.17,10.89-3.21C466.59,354.69,458.42,362.12,452.48,360.39Z" style="fill: #4400BA; stroke: rgb(38, 50, 56); stroke-miterlimit: 10; transform-origin: 458.971px 355.574px;" id="elowovmxa78io" class="animable"></path><line x1="452.48" y1="360.39" x2="460.63" y2="354.08" style="fill: none; stroke: rgb(38, 50, 56); stroke-miterlimit: 10; stroke-width: 0.5px; transform-origin: 456.555px 357.235px;" id="ela8egabc24m6" class="animable"></line><line x1="448.52" y1="340.22" x2="454.21" y2="332.79" style="fill: none; stroke: rgb(38, 50, 56); stroke-miterlimit: 10; stroke-width: 2px; transform-origin: 451.365px 336.505px;" id="elt60a9osgzve" class="animable"></line><path d="M452.48,335a7.25,7.25,0,0,1,2-5.69c1.49-1.64,9.75-6.18,10.89-3.22C466.59,329.33,458.42,336.75,452.48,335Z" style="fill: #4400BA; stroke: rgb(38, 50, 56); stroke-miterlimit: 10; transform-origin: 458.971px 330.187px;" id="elyhiig25w1xn" class="animable"></path><line x1="452.48" y1="335.02" x2="460.63" y2="328.71" style="fill: none; stroke: rgb(38, 50, 56); stroke-miterlimit: 10; stroke-width: 0.5px; transform-origin: 456.555px 331.865px;" id="el7exisj4c246" class="animable"></line><line x1="448.52" y1="306.69" x2="454.21" y2="299.27" style="fill: none; stroke: rgb(38, 50, 56); stroke-miterlimit: 10; stroke-width: 2px; transform-origin: 451.365px 302.98px;" id="elykxn73j4en9" class="animable"></line><path d="M452.48,301.49a7.25,7.25,0,0,1,2-5.69c1.49-1.64,9.75-6.17,10.89-3.22C466.59,295.8,458.42,303.23,452.48,301.49Z" style="fill: #4400BA; stroke: rgb(38, 50, 56); stroke-miterlimit: 10; transform-origin: 458.971px 296.678px;" id="elschmoomn6tb" class="animable"></path><line x1="452.48" y1="301.49" x2="460.63" y2="295.19" style="fill: none; stroke: rgb(38, 50, 56); stroke-miterlimit: 10; stroke-width: 0.5px; transform-origin: 456.555px 298.34px;" id="eljotb14vbz3" class="animable"></line><line x1="448.52" y1="280.33" x2="454.21" y2="272.91" style="fill: none; stroke: rgb(38, 50, 56); stroke-miterlimit: 10; stroke-width: 2px; transform-origin: 451.365px 276.62px;" id="elkk7ajkhr8g" class="animable"></line><path d="M452.48,275.14a7.28,7.28,0,0,1,2-5.7c1.49-1.63,9.75-6.17,10.89-3.21C466.59,269.44,458.42,276.87,452.48,275.14Z" style="fill: #4400BA; stroke: rgb(38, 50, 56); stroke-miterlimit: 10; transform-origin: 458.971px 270.324px;" id="elmf2h7slhbks" class="animable"></path><line x1="452.48" y1="275.14" x2="460.63" y2="268.83" style="fill: none; stroke: rgb(38, 50, 56); stroke-miterlimit: 10; stroke-width: 0.5px; transform-origin: 456.555px 271.985px;" id="elkmfay5pw5fb" class="animable"></line><path d="M448.18,263.45a7.28,7.28,0,0,1,2-5.7c1.49-1.63,9.75-6.17,10.89-3.21C462.28,257.75,454.12,265.18,448.18,263.45Z" style="fill: #4400BA; stroke: rgb(38, 50, 56); stroke-miterlimit: 10; transform-origin: 454.67px 258.634px;" id="elhevx1358xfq" class="animable"></path><line x1="448.18" y1="263.45" x2="456.32" y2="257.14" style="fill: none; stroke: rgb(38, 50, 56); stroke-miterlimit: 10; stroke-width: 0.5px; transform-origin: 452.25px 260.295px;" id="el79cu042z1j" class="animable"></line><path d="M448.57,263.8a7.28,7.28,0,0,1-5.45-2.57c-1.47-1.65-5.12-10.35-2.06-11.17C444.39,249.17,450.92,258.07,448.57,263.8Z" style="fill: #4400BA; stroke: rgb(38, 50, 56); stroke-miterlimit: 10; transform-origin: 444.471px 256.899px;" id="eliz2nmo61yq" class="animable"></path><line x1="448.57" y1="263.8" x2="443.16" y2="255.03" style="fill: none; stroke: rgb(38, 50, 56); stroke-miterlimit: 10; stroke-width: 0.5px; transform-origin: 445.865px 259.415px;" id="elq0c9vxew0ji" class="animable"></line><polygon points="455.58 477.56 437.37 477.56 435.09 431.57 457.86 431.57 455.58 477.56" style="fill: rgb(38, 50, 56); stroke: rgb(38, 50, 56); stroke-miterlimit: 10; transform-origin: 446.475px 454.565px;" id="el31u1s6acmea" class="animable"></polygon></g><g id="freepik--Lamp--inject-124" class="animable" style="transform-origin: 102.31px 75.2681px;"><g id="elhyv4wl6v7ne"><circle cx="102.6" cy="116.5" r="7.45" style="fill: rgb(255, 255, 255); stroke: rgb(38, 50, 56); stroke-miterlimit: 10; transform-origin: 102.6px 116.5px; transform: rotate(-22.11deg);" class="animable" id="el1j3r7744bp9"></circle></g><polygon points="135.81 118 68.81 118 92.26 90 112.36 90 135.81 118" style="fill: rgb(38, 50, 56); transform-origin: 102.31px 104px;" id="elq7w9vs6kmos" class="animable"></polygon><rect x="97.89" y="84.58" width="8.84" height="8.84" style="fill: rgb(38, 50, 56); transform-origin: 102.31px 89px;" id="elaltyg2mjvt" class="animable"></rect><line x1="102.67" y1="86.24" x2="102.67" y2="24.33" style="fill: none; stroke: rgb(38, 50, 56); stroke-miterlimit: 10; transform-origin: 102.67px 55.285px;" id="elm15qo3kayeo" class="animable"></line></g><g id="freepik--Characters--inject-124" class="animable" style="transform-origin: 126px 345.84px;"><path d="M155.36,279.46s-6.49-5-8.44-6-7.56-.24-9.77-.5-5.86,4.44-5.86,4.44.78,1.27,1.78,1.32,6.59.39,8,.38,4.28-.45,4.28-.45l8.08,6.3Z" style="fill: rgb(255, 255, 255); stroke: rgb(38, 50, 56); stroke-miterlimit: 10; transform-origin: 143.325px 278.938px;" id="elww0ukhzrb7b" class="animable"></path><path d="M175.71,292.63l-20.33-13.48-6.62,7.53s23.07,26.34,24.41,27S175.71,292.63,175.71,292.63Z" style="fill: #4400BA; stroke: rgb(38, 50, 56); stroke-miterlimit: 10; transform-origin: 162.235px 296.422px;" id="el8ec6sqy71oo" class="animable"></path><rect x="45.13" y="278.53" width="18.32" height="50.34" style="fill: rgb(38, 50, 56); stroke: rgb(38, 50, 56); stroke-miterlimit: 10; transform-origin: 54.29px 303.7px;" id="el5z8a02ri2hy" class="animable"></rect><rect x="27.45" y="278.53" width="53.67" height="42.55" style="fill: rgb(38, 50, 56); stroke: rgb(38, 50, 56); stroke-miterlimit: 10; transform-origin: 54.285px 299.805px;" id="elcawggfx9ydo" class="animable"></rect><rect x="31.72" y="281.92" width="45.13" height="35.78" style="fill: rgb(38, 50, 56); stroke: rgb(255, 255, 255); stroke-miterlimit: 10; transform-origin: 54.285px 299.81px;" id="elbf4plh8ziou" class="animable"></rect><path d="M92.83,284.86a95,95,0,0,0,9.92-4c2.63-1.48,13.68-9.78,13.68-9.78s1.16-3.94,2.14-4.49a56.8,56.8,0,0,1,5.64-2s8.23-.58,7.8,1-11.38,8.49-12.5,9.73-16.22,12.94-17.6,15.71S89.6,301.21,89.6,301.21s-1.51.24,0-3S92.46,287.58,92.83,284.86Z" style="fill: rgb(255, 255, 255); stroke: rgb(38, 50, 56); stroke-miterlimit: 10; transform-origin: 110.478px 282.85px;" id="elb2hr58yet6" class="animable"></path><path d="M89.6,301.21s10.93-7.46,12.31-10.22a15.82,15.82,0,0,1,2.88-3.17,59.76,59.76,0,0,0-1.71-7.19l-.33.2a95,95,0,0,1-9.92,4c-.37,2.72-1.69,10-3.21,13.31S89.6,301.21,89.6,301.21Z" style="fill: rgb(255, 255, 255); stroke: rgb(38, 50, 56); stroke-miterlimit: 10; transform-origin: 96.8646px 290.922px;" id="eltib6yyr0f3c" class="animable"></path><path d="M100.92,281.26s1.86,7,1,9.73a15.89,15.89,0,0,1-4.4,6.62c-1.61,1.43-6.83,5.06-8.35,5s.36-6.42.82-7.29,2-9.88,3.49-11.13S100.24,281.12,100.92,281.26Z" style="fill: rgb(255, 255, 255); stroke: rgb(38, 50, 56); stroke-miterlimit: 10; transform-origin: 95.3671px 291.932px;" id="elcm62853y589" class="animable"></path><path d="M131.2,266.4a3.2,3.2,0,0,0,.89-1.92,49.33,49.33,0,0,0-.34-5.09c-.17-1.6-1.77-1.44-1.73-.54s0,4.3,0,4.3l.09,1.87Z" style="fill: rgb(255, 255, 255); stroke: rgb(38, 50, 56); stroke-miterlimit: 10; transform-origin: 131.055px 262.288px;" id="elskxn9x67jc" class="animable"></path><path d="M129.3,267.84a15.58,15.58,0,0,0,2.31-2.17,21.5,21.5,0,0,0-2.13-5.09c-.88-1.48-2.14-1.69-2-.62s1.69,5.2,1.8,5.64-.73,1.47-.73,1.47" style="fill: rgb(255, 255, 255); stroke: rgb(38, 50, 56); stroke-miterlimit: 10; transform-origin: 129.54px 263.564px;" id="elu1rdw95l0pd" class="animable"></path><path d="M124.72,271.48s5.08-3,5-4-1.83-6.32-2.89-7.28-1.52.08-1.1,1.74,1.4,4.32,1.4,4.32l-1.92,2.12" style="fill: rgb(255, 255, 255); stroke: rgb(38, 50, 56); stroke-miterlimit: 10; transform-origin: 127.22px 265.656px;" id="elsjnwqcg3u1f" class="animable"></path><path d="M118.05,273a31.84,31.84,0,0,1,2.67-3.84,17.71,17.71,0,0,1,3.64-1.36,10.77,10.77,0,0,1-1.53-3.64c-.06-1.34.57-2.22,1.44-1.59s2.39,3.93,2.82,5.77-6.78,6.07-6.78,6.07" style="fill: rgb(255, 255, 255); stroke: rgb(38, 50, 56); stroke-miterlimit: 10; transform-origin: 122.579px 268.386px;" id="elr6y7j6lro2o" class="animable"></path><path d="M104.17,229.74a2.67,2.67,0,0,0,1.74-2.86c-.06-2.38-1-7-7.08-9.56s-16.07-4.12-24.91,3.18S68,243,67.66,245.13s-4.89,15.52-6.46,19.37,1.38,8.14,2.29,8.49,9.76-3.87,13.41-8.58,4.76-12.25,6.41-15.6,4-11.45,6.59-13.59,4.73-1.31,7.27-3.45,4.23-2.25,4.23-2.25Z" style="fill: rgb(38, 50, 56); stroke: rgb(38, 50, 56); stroke-miterlimit: 10; transform-origin: 83.3403px 244.099px;" id="elsr1tpvzwgbg" class="animable"></path><path d="M75.9,254.78s-9.44,3.37-14.32,9.27S56,281.9,55.69,286.11s0,16,0,16-7.58,17-9.1,21.72-2.19,6.57-.67,7.92,42.1,1.35,46,.67.84-12.46.67-15.16-2.7-13.81-2.7-15.15,5.39-7.58,5.9-12.63.17-8.93.67-11,1.18-13-.67-16.67-4-6.07-5.9-7.08S81.62,251.92,75.9,254.78Z" style="fill: rgb(255, 255, 255); stroke: rgb(38, 50, 56); stroke-miterlimit: 10; transform-origin: 71.0338px 293.052px;" id="el5bxol85bbgd" class="animable"></path><path d="M76.62,252.67a5.46,5.46,0,0,0-2.76,1.83,4.8,4.8,0,0,0-1,2.05L81.4,269.8l5.74-6.44,7,2.06a88.32,88.32,0,0,0-4-11.29C88.38,250.51,80.1,248,76.62,252.67Z" style="fill: rgb(255, 255, 255); stroke: rgb(38, 50, 56); stroke-miterlimit: 10; transform-origin: 83.5px 259.961px;" id="eljnl7s37qie8" class="animable"></path><path d="M104.15,230.59a27.52,27.52,0,0,1,.65,4.85c0,2.05-2.15,4.46-2.15,4.46s.84,4,1,4.95-3.17,2.42-3.17,2.42-2,5.46-3.34,6.54-4.65.79-5.26.21a4.67,4.67,0,0,0-2.33-.63s-1.29,4.49-1.12,5.48,1.44,13.59,1.44,13.59-2.89-5-4.91-7.88-5.59-7.76-6.48-9-1.86-2.93-1.86-2.93,2.76-7,3.66-9.67.87-7,2.59-5.91,3,1.38,3.52-.42,1.1-3.6,4.58-4.19,4.15-4.8,6.08-5.47S103.83,226.72,104.15,230.59Z" style="fill: rgb(255, 255, 255); stroke: rgb(38, 50, 56); stroke-miterlimit: 10; transform-origin: 90.71px 249.593px;" id="el65kj6hnv9p" class="animable"></path><path d="M85.73,239.86s-.34-5.07-3.25-5.09-3.45,3.83-3.06,6.15,4.19,2.54,4.19,2.54" style="fill: rgb(255, 255, 255); stroke: rgb(38, 50, 56); stroke-miterlimit: 10; transform-origin: 82.5191px 239.115px;" id="elt7v40z5ipzl" class="animable"></path><path d="M99.42,239.27c-.11.69-.57,1.19-1,1.11s-.74-.69-.63-1.38.57-1.19,1-1.11S99.53,238.58,99.42,239.27Z" style="fill: rgb(38, 50, 56); transform-origin: 98.605px 239.135px;" id="el41inwhzevyh" class="animable"></path><path d="M96.46,235.65s3-2.22,5.26-.2" style="fill: none; stroke: rgb(38, 50, 56); stroke-miterlimit: 10; transform-origin: 99.09px 235.126px;" id="elcznm3ip0hea" class="animable"></path><path d="M94.05,245.62s.61,2.63,4,2.4" style="fill: none; stroke: rgb(38, 50, 56); stroke-miterlimit: 10; transform-origin: 96.05px 246.827px;" id="el736jw9riq9k" class="animable"></path><path d="M87.85,305.31s21.06,10.78,22.57,11.28,3,1.35,4.21.67,5.22,1,6.23,1.35a47.91,47.91,0,0,0,6.07.51s1.85-1,1.85.17-6.06,4.21-7.41,4.71-5.39,1-6.91,0-12.63-4.38-12.63-4.38-13.3-3.37-14.82-3.87a39.71,39.71,0,0,0-4.55-1Z" style="fill: rgb(255, 255, 255); stroke: rgb(38, 50, 56); stroke-miterlimit: 10; transform-origin: 105.62px 314.944px;" id="eluh36dymkjs" class="animable"></path><path d="M124.74,318.78s2.35.34,0,1.18a6.4,6.4,0,0,1-4.38.17,16.59,16.59,0,0,0-2.53-.17" style="fill: rgb(255, 255, 255); stroke: rgb(38, 50, 56); stroke-miterlimit: 10; transform-origin: 121.807px 319.608px;" id="elbzthya8wytn" class="animable"></path><path d="M87.85,305.31l-5.39,9.43a39.71,39.71,0,0,1,4.55,1l.5.15,3.2-9.13Z" style="fill: rgb(255, 255, 255); stroke: rgb(38, 50, 56); stroke-miterlimit: 10; transform-origin: 86.585px 310.6px;" id="eloi7ol19lw4" class="animable"></path><path d="M76.23,270.61s.17,8.76,2.7,15.16,6.23,10.11,5.72,11a17.25,17.25,0,0,0-1,2.19s2.19-.34,2.36,1a17.58,17.58,0,0,1,.17,1.85s1.52,1.18,2.19,1.68.67,2.19.67,2.19-3.53,9.44-5,10.61-5.73,1.52-11.28-.84-7.92-7.07-9.94-13.47-2.19-23.58-1.35-26.78" style="fill: rgb(255, 255, 255); stroke: rgb(38, 50, 56); stroke-miterlimit: 10; transform-origin: 75.0173px 293.905px;" id="elcobpjs6gpg" class="animable"></path><line x1="124.36" y1="267.79" x2="118.97" y2="279.47" style="fill: rgb(255, 255, 255); stroke: rgb(38, 50, 56); stroke-miterlimit: 10; transform-origin: 121.665px 273.63px;" id="el8e6qoeqntgw" class="animable"></line><line x1="131.2" y1="266.4" x2="142.65" y2="277.52" style="fill: none; stroke: rgb(38, 50, 56); stroke-miterlimit: 10; transform-origin: 136.925px 271.96px;" id="el3gr2ujp3ftg" class="animable"></line><path d="M141.56,274.62l-4.83.73c-1.36.2-4.91-1-4.9.34s2.39,1.42,3.17,1.3,2.74,1.17,4.77,1.46a9.12,9.12,0,0,0,4.58-1.09" style="fill: rgb(255, 255, 255); stroke: rgb(38, 50, 56); stroke-miterlimit: 10; transform-origin: 138.09px 276.537px;" id="el0i6rm07n1skr" class="animable"></path><polygon points="118.97 279.47 142.65 277.52 152.24 312.94 120.54 322.13 113.5 320.18 118.97 279.47" style="fill: #4400BA; stroke: rgb(38, 50, 56); stroke-miterlimit: 10; transform-origin: 132.87px 299.825px;" id="el9ifw84jbzvc" class="animable"></polygon><polygon points="118.97 279.47 120.54 322.13 113.5 320.18 118.97 279.47" style="fill: #4400BA; stroke: rgb(38, 50, 56); stroke-miterlimit: 10; transform-origin: 117.02px 300.8px;" id="el9fw2fhrlf2" class="animable"></polygon><path d="M127.07,279.41a29.38,29.38,0,0,0-.25,10c.88,4.9,3.14,12.3,3.14,12.3l3.63-1.76s-2.63-8.4-3.63-13.17a51.52,51.52,0,0,1-1.13-7.16Z" style="fill: rgb(38, 50, 56); transform-origin: 130.049px 290.56px;" id="elaeexjswzyk" class="animable"></path><path d="M127,278.9s0,7.63,1.18,11.35,4.69,11.36,4.69,11.36l9.8-4.31S137.35,289.86,136,286a70.7,70.7,0,0,1-2.16-7.64Z" style="fill: rgb(255, 255, 255); stroke: rgb(38, 50, 56); stroke-miterlimit: 10; transform-origin: 134.835px 289.985px;" id="el7ibgnsrfaix" class="animable"></path><rect x="27" y="330.92" width="125.24" height="146.64" style="fill: rgb(255, 255, 255); stroke: rgb(38, 50, 56); stroke-miterlimit: 10; transform-origin: 89.62px 404.24px;" id="elobppyxn4v8p" class="animable"></rect><rect x="27" y="328.4" width="125.24" height="9.39" style="fill: rgb(38, 50, 56); stroke: rgb(38, 50, 56); stroke-miterlimit: 10; transform-origin: 89.62px 333.095px;" id="elnratuti94j" class="animable"></rect><rect x="27" y="328.4" width="131.5" height="5.74" style="fill: rgb(255, 255, 255); stroke: rgb(38, 50, 56); stroke-miterlimit: 10; transform-origin: 92.75px 331.27px;" id="els5msm69c9a" class="animable"></rect><path d="M221.51,455.73l.82,8.41s1.64-.41,1.64,2.26,1.65,9-.61,10.46-13.13.21-15.6.21-7.18-.41-12.31-.41-3.28-2.46-2.26-3.29,9.24-2.87,11.5-4.51a16.73,16.73,0,0,0,4.51-6.36c.2-.82,0-7.59,0-7.59Z" style="fill: rgb(255, 255, 255); stroke: rgb(38, 50, 56); stroke-miterlimit: 10; transform-origin: 208.281px 466.239px;" id="elt3cmvmulmpg" class="animable"></path><path d="M224,466.4c0-1.71-.67-2.16-1.15-2.25-2.54,1.48-8.9,2-8.9,2a9.44,9.44,0,0,0-2.67-3.08,1.63,1.63,0,0,0-2.26.62l-.35,0a16,16,0,0,1-3.95,5.09c-2.26,1.64-10.47,3.69-11.5,4.51s-2.87,3.29,2.26,3.29,9.85.41,12.31.41,13.34,1.23,15.6-.21S224,469.07,224,466.4Z" style="fill: rgb(255, 255, 255); stroke: rgb(38, 50, 56); stroke-miterlimit: 10; transform-origin: 208.309px 470.161px;" id="elzpa1iwf5z9" class="animable"></path><path d="M214.12,361.16s0,30.58.62,34.07.82,7,1,7.59,2,2.87,2,4.51S216,410,216,410a3.26,3.26,0,0,1,1.44,2.67,4.36,4.36,0,0,1-.41,2.87s3.9,13.34,4.31,19.29.41,17.44.41,17.44-3.49.21-7.6.62a50.29,50.29,0,0,1-7.38.2s4.31-28.93,2.66-35.29-4.92-12.31-4.51-19.29,2.67-28.11,3.49-30.37S212.48,357.06,214.12,361.16Z" style="fill: rgb(38, 50, 56); stroke: rgb(38, 50, 56); stroke-miterlimit: 10; transform-origin: 213.317px 406.616px;" id="eluo8roph2iem" class="animable"></path><path d="M209.4,447.14s6.57.21,8.42.21,3.08-1.85,4.51-.41.82,7.59.41,8.61-4.1,1.65-7.38,1.65h-7.6Z" style="fill: rgb(110, 110, 110); stroke: rgb(38, 50, 56); stroke-miterlimit: 10; transform-origin: 215.493px 451.796px;" id="ela9c9yo234ht" class="animable"></path><path d="M195.25,454.12l-.41,5.95s-2.26.82-2.67,1.85a11.39,11.39,0,0,1-4.31,5.13,70.5,70.5,0,0,1-11.29,4.71c-1.84.42-3.69,2.26-2.46,3.9s12.31,2.06,18.06,1.85,15.18-.2,17.85-.82,1.23-5.75.62-8a29.17,29.17,0,0,1-.82-4.11l-.62-9Z" style="fill: rgb(255, 255, 255); stroke: rgb(38, 50, 56); stroke-miterlimit: 10; transform-origin: 192.645px 465.84px;" id="elxidtwit8qzc" class="animable"></path><path d="M192.17,461.92a11.39,11.39,0,0,1-4.31,5.13,70.5,70.5,0,0,1-11.29,4.71c-1.84.42-3.69,2.26-2.46,3.9s12.31,2.06,18.06,1.85,15.18-.2,17.85-.82,1.23-5.75.62-8a30.73,30.73,0,0,1-.71-3.27c-3.28.58-8.32-.63-8.32-.63a9,9,0,0,1-2.88-2.67c-1-1.64-3.89-2.05-3.89-2.05S192.58,460.89,192.17,461.92Z" style="fill: rgb(255, 255, 255); stroke: rgb(38, 50, 56); stroke-miterlimit: 10; transform-origin: 192.645px 468.815px;" id="elsoy4rtrirt" class="animable"></path><path d="M181.09,344.54l1.84,10.88a164.44,164.44,0,0,0,0,28.52c1.44,13.95,4.52,29.34,4.52,29.34s4.51,18.06,5.13,21.55,1.85,16.83,1.85,16.83a17.44,17.44,0,0,0,9.43,2c5.34-.41,6.16-2.26,6.16-2.26s3.08-23.39,2.46-27.5S209.82,411,209.82,411s.41-2.88.41-4.31a17.78,17.78,0,0,0-.21-2.67,6.39,6.39,0,0,0,.41-2.05c0-1-.61-4.52-.61-4.52l2.66-27.9,2.05-6.57s3.29-2.05,4.31-7.39.21-13.95.21-13.95-16,3.08-25,.82-13.33-2.26-13.33-2.26Z" style="fill: rgb(38, 50, 56); stroke: rgb(38, 50, 56); stroke-miterlimit: 10; transform-origin: 200.038px 396.952px;" id="elyb55096tkqe" class="animable"></path><path d="M178.83,274.36s-2.67.62-3.9,10.88-1.23,16.41-1,17.44,0,28.32,0,30.78-.62,10.05-.62,10.05,6.77,4.31,20.52,4.93S225,343.72,225,343.72s-1.44-25.45-2.05-30.37-3.08-31.6-6.16-39.81-4.51-10.05-5.13-10.46-8.62-4.11-15-1.24-12.93,8.42-14.36,9.24A18.5,18.5,0,0,0,178.83,274.36Z" style="fill: #4400BA; stroke: rgb(38, 50, 56); stroke-miterlimit: 10; transform-origin: 199.155px 304.624px;" id="elju4xtbfiaf" class="animable"></path><path d="M215.3,329.3c1.09-.29,2.18-.6,3.29-.95" style="fill: none; stroke: rgb(38, 50, 56); stroke-miterlimit: 10; transform-origin: 216.945px 328.825px;" id="elpqio9yccc9q" class="animable"></path><path d="M180.12,329.64s13.68,4.35,31.95.43" style="fill: none; stroke: rgb(38, 50, 56); stroke-miterlimit: 10; transform-origin: 196.095px 330.674px;" id="elqjhh5yes2xc" class="animable"></path><path d="M219.37,306.92a51.5,51.5,0,0,1-7,1.55" style="fill: none; stroke: rgb(38, 50, 56); stroke-miterlimit: 10; transform-origin: 215.87px 307.695px;" id="el848yfdxpp7e" class="animable"></path><path d="M177.28,294.78s5.68,1.29,10.33-.26" style="fill: none; stroke: rgb(38, 50, 56); stroke-miterlimit: 10; transform-origin: 182.445px 294.902px;" id="elkb9yjltnn1j" class="animable"></path><path d="M178.85,225.86,176.42,231c0,2.08,1,5.41.41,6.24s-5.43,4.34-4.59,6a4.52,4.52,0,0,0,2.66,2.14,71.68,71.68,0,0,1,1.46,8.32c0,1.87.41,2.91,4.16,3.74s5.19.21,5.19.21l2.29,7.07,16.84-8.11S203.18,248.52,203,245s2.85-4.67,3.12-14.76c0-1.92-3.74-6.24-10-8.53S181.76,223,178.85,225.86Z" style="fill: rgb(255, 255, 255); stroke: rgb(38, 50, 56); stroke-miterlimit: 10; transform-origin: 189.131px 242.85px;" id="el91xiszsuu4j" class="animable"></path><path d="M180.41,237.64c0,.64-.29,1.15-.64,1.15s-.64-.51-.64-1.15.29-1.15.64-1.15S180.41,237,180.41,237.64Z" style="fill: rgb(38, 50, 56); transform-origin: 179.77px 237.64px;" id="el1zn2ajg05k3i" class="animable"></path><path d="M177.85,233.17s3.07-2,4.47,1" style="fill: none; stroke: rgb(38, 50, 56); stroke-miterlimit: 10; transform-origin: 180.085px 233.343px;" id="elytpmbx7fqkq" class="animable"></path><path d="M176.58,247.22a6.72,6.72,0,0,0,5.87-1.53" style="fill: none; stroke: rgb(38, 50, 56); stroke-miterlimit: 10; transform-origin: 179.515px 246.531px;" id="elq794mt1c1a" class="animable"></path><path d="M209.62,221.28c-3.32-5.4-16.42-5.61-18.5-5.4a16.56,16.56,0,0,1-5-.62s-8.73-2.71-9.56.2,2.28,5.62,2.28,5.62-8.94-1.87-6.44,2.08,7.48,4,7.48,4,10-4,9.77-1-4.15,3.12-2.08,4.78,3.33,2.91,3.33,3.74-1.13,3.5-.35,4.92c-.05,1.62-.12,3.84-.19,5.79-.13,3.58-.51,5.24-3.32,6.52a31.83,31.83,0,0,1-6.26,1.91,5.63,5.63,0,0,0-2.55-2.55c-1.53-.51-2.3,0-2.3.89s-.26,4.47,2.17,6,4.85,1,9.45-1.78,5.24-7.15,5.11-10.35c-.09-2.26-.12-5,0-6.85.31-1.06.72-2.42,2.81-2.42,3.74,0,3.74,4.16,3.32,6.24S195.9,246,195.9,246s4.78,1.87,6.65,1.87,6.87-2.91,8.32-8.11S213,226.69,209.62,221.28Z" style="fill: rgb(38, 50, 56); stroke: rgb(38, 50, 56); stroke-miterlimit: 10; transform-origin: 192.011px 236.558px;" id="el2iwc520qocb" class="animable"></path><path d="M193.6,445.7a79.79,79.79,0,0,0,11.29,1.24,57.67,57.67,0,0,0,6.16-.21s-.21,6.36-.82,8.62-5.75,3.28-10.26,2.26-6.16-1.23-6.37-2.47S193.6,445.7,193.6,445.7Z" style="fill: rgb(110, 110, 110); stroke: rgb(38, 50, 56); stroke-miterlimit: 10; transform-origin: 202.278px 451.853px;" id="elbgu4g82ectn" class="animable"></path><path d="M185,272.93l-.19,17.17A.92.92,0,0,0,186,291h0a.92.92,0,0,0,.62-.87l.2-17.6Z" style="fill: rgb(255, 255, 255); stroke: rgb(38, 50, 56); stroke-miterlimit: 10; transform-origin: 185.815px 281.785px;" id="el5lyupbqxiiu" class="animable"></path><path d="M206.53,253.64s-15.8,8.2-20.52,10.67-10.67,12.92-9.85,13.13,9.24-3.69,9.85-3.69,8.42-7.6,15.8-9,11.08,3.49,13.75,1.84-.82-8-2.87-10.87S206.53,253.64,206.53,253.64Z" style="fill: #4400BA; stroke: rgb(38, 50, 56); stroke-miterlimit: 10; transform-origin: 196.305px 265.494px;" id="elrvf89plaqil" class="animable"></path><path d="M177.19,274.69c-.86,1.57-1.29,2.68-1,2.75.82.21,9.24-3.69,9.85-3.69.34,0,2.86-2.31,6.29-4.62Z" style="fill: rgb(255, 255, 255); stroke: rgb(38, 50, 56); stroke-miterlimit: 10; transform-origin: 184.215px 273.289px;" id="el2md2bmrusz4" class="animable"></path><path d="M160.82,314.89l-5.75.12s-3.84-1.67-4.32-1.79a20.31,20.31,0,0,0-4.31.47,18.2,18.2,0,0,1-5.27.36c-1.32-.24-.12,2.4.6,2.64s2.51,1,3.47.6a7.51,7.51,0,0,1,2.76-.12l-3.6,2s-8-.6-9-1-1.8.36-1.32,1a39.86,39.86,0,0,0,7.79,4.07c1,.12,14.26-2.16,14.26-2.16l6.83.48Z" style="fill: rgb(255, 255, 255); stroke: rgb(38, 50, 56); stroke-miterlimit: 10; transform-origin: 148.448px 318.232px;" id="eluishjmg88p" class="animable"></path><path d="M199.14,269.85s-6.15,2.67-7.18,7.59-4.72,27.7-4.72,27.7-3.69.62-3.69,1.64a21.23,21.23,0,0,1-.21,2.47s-4.51,1.23-8.41,1.84-15,2.67-15,2.67,0-.41-.61,2.87,1.43,9.85,1.43,9.85,10.06.62,17.24.21,25-2.67,27.09-5.34,6.15-16.62,6.56-21.75,1.23-16.21,1.23-16.21" style="fill: #4400BA; stroke: rgb(38, 50, 56); stroke-miterlimit: 10; transform-origin: 186.038px 298.34px;" id="el7a21ulviy0q" class="animable"></path><path d="M185.54,309.5s2.07,2.84,7.75,3.1" style="fill: none; stroke: rgb(38, 50, 56); stroke-miterlimit: 10; transform-origin: 189.415px 311.05px;" id="elxfmtzpga06a" class="animable"></path><path d="M188.64,306.14h3.87" style="fill: none; stroke: rgb(38, 50, 56); stroke-miterlimit: 10; transform-origin: 190.575px 306.14px;" id="elp881v0ux60g" class="animable"></path></g><g id="freepik--Floor--inject-124" class="animable" style="transform-origin: 240px 477.56px;"><line x1="356" y1="477.56" x2="468" y2="477.56" style="fill: none; stroke: rgb(38, 50, 56); stroke-miterlimit: 10; transform-origin: 412px 477.56px;" id="elu6y84sf4imk" class="animable"></line><line x1="12" y1="477.56" x2="346" y2="477.56" style="fill: none; stroke: rgb(38, 50, 56); stroke-miterlimit: 10; transform-origin: 179px 477.56px;" id="ele30pxdh9bag" class="animable"></line></g><defs>     <filter id="active" height="200%">         <feMorphology in="SourceAlpha" result="DILATED" operator="dilate" radius="2"></feMorphology>                <feFlood flood-color="#32DFEC" flood-opacity="1" result="PINK"></feFlood>        <feComposite in="PINK" in2="DILATED" operator="in" result="OUTLINE"></feComposite>        <feMerge>            <feMergeNode in="OUTLINE"></feMergeNode>            <feMergeNode in="SourceGraphic"></feMergeNode>        </feMerge>    </filter>    <filter id="hover" height="200%">        <feMorphology in="SourceAlpha" result="DILATED" operator="dilate" radius="2"></feMorphology>                <feFlood flood-color="#ff0000" flood-opacity="0.5" result="PINK"></feFlood>        <feComposite in="PINK" in2="DILATED" operator="in" result="OUTLINE"></feComposite>        <feMerge>            <feMergeNode in="OUTLINE"></feMergeNode>            <feMergeNode in="SourceGraphic"></feMergeNode>        </feMerge>            <feColorMatrix type="matrix" values="0   0   0   0   0                0   1   0   0   0                0   0   0   0   0                0   0   0   1   0 "></feColorMatrix>    </filter></defs></svg>